<svg width="107" height="100" viewBox="0 0 107 100" fill="none" xmlns="http://www.w3.org/2000/svg">
<rect x="0.5" width="106" height="100" rx="50" fill="#F7F8FE"/>
<g clip-path="url(#clip0_74_2470)">
<path d="M50.5369 27.5764V34.3542C49.3569 34.3653 48.2278 34.8367 47.3902 35.6679C46.5526 36.4992 46.0726 37.6246 46.0525 38.8045C46.0325 39.9844 46.4739 41.1255 47.2827 41.9848C48.0916 42.8441 49.2039 43.3536 50.3829 43.4048C50.4201 45.6135 50.4588 47.8214 50.499 50.0286L45.3754 50.1068C45.9759 51.5065 45.7616 53.0447 44.8374 53.9958C44.7347 54.1007 43.6943 55.1343 42.3325 54.8888C40.9707 54.6432 40.196 53.2613 40.0643 52.1473C39.9885 51.4397 40.1361 50.7262 40.4862 50.1068L35.289 50.0666L35.2488 43.3289C37.162 43.1726 38.794 42.0407 39.4481 40.4021C39.8603 39.3212 39.8459 38.124 39.4079 37.0533C38.7248 35.4482 37.0973 34.3743 35.2108 34.2404L35.1707 27.5764L40.2541 27.5384C40.0461 27.1088 39.9285 26.641 39.9085 26.1641C39.8885 25.6872 39.9666 25.2112 40.138 24.7657C40.2139 24.5826 40.8836 23.0154 42.4866 22.8011C43.1017 22.7314 43.7233 22.8523 44.2675 23.1473C44.8117 23.4424 45.2522 23.8974 45.5294 24.4509C46.2974 25.9757 45.3843 27.4558 45.3375 27.5317L50.5369 27.5764Z" fill="#BEBCFA" stroke="#4540DB" stroke-width="1.56275" stroke-miterlimit="10"/>
<path d="M76.4183 46.5325H69.6382C69.6177 45.359 69.1422 44.2393 68.3121 43.4095C67.4819 42.5797 66.362 42.1048 65.1884 42.0848C64.0149 42.0648 62.8794 42.5014 62.0215 43.3024C61.1636 44.1034 60.6503 45.2063 60.5899 46.3785L53.966 46.4946C53.9392 44.7875 53.9132 43.0796 53.8879 41.371C52.4881 41.9716 50.9499 41.7572 49.9989 40.833C49.894 40.7303 48.8581 39.6899 49.1059 38.3281C49.3537 36.9663 50.7245 36.1916 51.8407 36.0577C52.5482 35.9819 53.2617 36.1294 53.8812 36.4796C53.8946 34.7472 53.9072 33.0148 53.9192 31.2823L60.6591 31.2422C60.8153 33.1554 61.9472 34.7874 63.5859 35.4415C64.6667 35.8539 65.864 35.8395 66.9346 35.4013C68.5398 34.7182 69.6136 33.0907 69.7453 31.2042L76.4093 31.1663C76.4198 32.8615 76.4324 34.5559 76.4473 36.2497C76.8769 36.0416 77.3447 35.9239 77.8216 35.9039C78.2986 35.8839 78.7746 35.9621 79.2201 36.1336C79.4031 36.2095 80.9681 36.8792 81.1847 38.4822C81.2538 39.098 81.1319 39.7202 80.8356 40.2645C80.5393 40.8088 80.0829 41.2488 79.5282 41.5251C78.0034 42.293 76.521 41.3799 76.4473 41.3331C76.4399 43.0655 76.4302 44.7986 76.4183 46.5325Z" stroke="#4540DB" stroke-width="1.56275" stroke-miterlimit="10"/>
<path d="M57.4623 72.4497V65.6786C58.6359 65.6581 59.7556 65.1826 60.5854 64.3525C61.4152 63.5223 61.8901 62.4024 61.9101 61.2288C61.9301 60.0552 61.4935 58.9198 60.6925 58.0619C59.8915 57.204 58.7886 56.6907 57.6164 56.6302C57.5777 54.4201 57.539 52.2114 57.5003 50.0042L62.6216 49.9283C62.0211 48.5285 62.2354 46.9903 63.1619 46.0393C63.2624 45.9343 64.3027 44.8985 65.6645 45.1463C67.0264 45.3941 67.801 46.776 67.9372 47.8922C68.0122 48.6 67.8638 49.3135 67.5131 49.9327L72.7125 49.9707L72.7505 56.7106C70.8395 56.8669 69.2075 57.9988 68.5534 59.6374C68.1398 60.7179 68.1534 61.9153 68.5913 62.9862C69.2767 64.5913 70.9042 65.6652 72.7907 65.7969L72.8286 72.4609L67.7452 72.4988C67.9522 72.9288 68.0692 73.3965 68.0892 73.8733C68.1092 74.35 68.0316 74.8258 67.8613 75.2716C67.7854 75.4547 67.1134 77.0197 65.5105 77.2362C64.8943 77.3039 64.2721 77.181 63.728 76.884C63.1839 76.587 62.7439 76.1302 62.4676 75.5752C61.7019 74.0504 62.6127 72.568 62.6618 72.4944L57.4623 72.4497Z" fill="#BEBCFA" stroke="#4540DB" stroke-width="1.56275" stroke-miterlimit="10"/>
<path d="M31.5808 53.5024H38.3587C38.3697 54.6825 38.8411 55.8115 39.6723 56.6492C40.5036 57.4868 41.629 57.9668 42.8089 57.9868C43.9888 58.0069 45.1299 57.5655 45.9892 56.7567C46.8485 55.9478 47.358 54.8355 47.4092 53.6565L54.033 53.5404C54.0598 55.2475 54.0859 56.9546 54.1112 58.6617C55.5109 58.0612 57.0491 58.2755 58.0002 59.202C58.1051 59.3025 59.1388 60.3428 58.8932 61.7046C58.6476 63.0665 57.2724 63.8411 56.1584 63.9773C55.4506 64.0526 54.737 63.9042 54.1179 63.5531L54.0777 68.7526L47.34 68.7906C47.1837 66.8796 46.0518 65.2476 44.4132 64.5935C43.3327 64.1802 42.1353 64.1937 41.0644 64.6314C39.4593 65.3168 38.3854 66.9443 38.2515 68.8308L31.5808 68.8777C31.5674 67.1824 31.5547 65.488 31.5428 63.7943C31.1128 64.0011 30.645 64.1179 30.1682 64.1375C29.6914 64.1571 29.2156 64.079 28.7701 63.9081C28.587 63.8344 27.0198 63.1625 26.8055 61.5595C26.7342 60.943 26.8543 60.3195 27.1494 59.7736C27.4446 59.2277 27.9005 58.7857 28.4553 58.5077C29.9801 57.742 31.4602 58.6528 31.5361 58.7019C31.554 56.968 31.5689 55.2349 31.5808 53.5024Z" stroke="#4540DB" stroke-width="1.56275" stroke-miterlimit="10"/>
</g>
<g clip-path="url(#clip1_74_2470)">
<path d="M50.5369 27.5764V34.3542C49.3569 34.3653 48.2278 34.8367 47.3902 35.6679C46.5526 36.4992 46.0726 37.6246 46.0525 38.8045C46.0325 39.9844 46.4739 41.1255 47.2827 41.9848C48.0916 42.8441 49.2039 43.3536 50.3829 43.4048C50.4201 45.6135 50.4588 47.8214 50.499 50.0286L45.3754 50.1068C45.9759 51.5065 45.7616 53.0447 44.8374 53.9958C44.7347 54.1007 43.6943 55.1343 42.3325 54.8888C40.9707 54.6432 40.196 53.2613 40.0643 52.1473C39.9885 51.4397 40.1361 50.7262 40.4862 50.1068L35.289 50.0666L35.2488 43.3289C37.162 43.1726 38.794 42.0407 39.4481 40.4021C39.8603 39.3212 39.8459 38.124 39.4079 37.0533C38.7248 35.4482 37.0973 34.3743 35.2108 34.2404L35.1707 27.5764L40.2541 27.5384C40.0461 27.1088 39.9285 26.641 39.9085 26.1641C39.8885 25.6872 39.9666 25.2112 40.138 24.7657C40.2139 24.5826 40.8836 23.0154 42.4866 22.8011C43.1017 22.7314 43.7233 22.8523 44.2675 23.1473C44.8117 23.4424 45.2522 23.8974 45.5294 24.4509C46.2974 25.9757 45.3843 27.4558 45.3375 27.5317L50.5369 27.5764Z" fill="#BEBCFA" stroke="#4540DB" stroke-width="1.56275" stroke-miterlimit="10"/>
<path d="M76.4183 46.5325H69.6382C69.6177 45.359 69.1422 44.2393 68.3121 43.4095C67.4819 42.5797 66.362 42.1048 65.1884 42.0848C64.0149 42.0648 62.8794 42.5014 62.0215 43.3024C61.1636 44.1034 60.6503 45.2063 60.5899 46.3785L53.966 46.4946C53.9392 44.7875 53.9132 43.0796 53.8879 41.371C52.4881 41.9716 50.9499 41.7572 49.9989 40.833C49.894 40.7303 48.8581 39.6899 49.1059 38.3281C49.3537 36.9663 50.7245 36.1916 51.8407 36.0577C52.5482 35.9819 53.2617 36.1294 53.8812 36.4796C53.8946 34.7472 53.9072 33.0148 53.9192 31.2823L60.6591 31.2422C60.8153 33.1554 61.9472 34.7874 63.5859 35.4415C64.6667 35.8539 65.864 35.8395 66.9346 35.4013C68.5398 34.7182 69.6136 33.0907 69.7453 31.2042L76.4093 31.1663C76.4198 32.8615 76.4324 34.5559 76.4473 36.2497C76.8769 36.0416 77.3447 35.9239 77.8216 35.9039C78.2986 35.8839 78.7746 35.9621 79.2201 36.1336C79.4031 36.2095 80.9681 36.8792 81.1847 38.4822C81.2538 39.098 81.1319 39.7202 80.8356 40.2645C80.5393 40.8088 80.0829 41.2488 79.5282 41.5251C78.0034 42.293 76.521 41.3799 76.4473 41.3331C76.4399 43.0655 76.4302 44.7986 76.4183 46.5325Z" stroke="#4540DB" stroke-width="1.56275" stroke-miterlimit="10"/>
<path d="M57.4623 72.4497V65.6786C58.6359 65.6581 59.7556 65.1826 60.5854 64.3525C61.4152 63.5223 61.8901 62.4024 61.9101 61.2288C61.9301 60.0552 61.4935 58.9198 60.6925 58.0619C59.8915 57.204 58.7886 56.6907 57.6164 56.6302C57.5777 54.4201 57.539 52.2114 57.5003 50.0042L62.6216 49.9283C62.0211 48.5285 62.2354 46.9903 63.1619 46.0393C63.2624 45.9343 64.3027 44.8985 65.6645 45.1463C67.0264 45.3941 67.801 46.776 67.9372 47.8922C68.0122 48.6 67.8638 49.3135 67.5131 49.9327L72.7125 49.9707L72.7505 56.7106C70.8395 56.8669 69.2075 57.9988 68.5534 59.6374C68.1398 60.7179 68.1534 61.9153 68.5913 62.9862C69.2767 64.5913 70.9042 65.6652 72.7907 65.7969L72.8286 72.4609L67.7452 72.4988C67.9522 72.9288 68.0692 73.3965 68.0892 73.8733C68.1092 74.35 68.0316 74.8258 67.8613 75.2716C67.7854 75.4547 67.1134 77.0197 65.5105 77.2362C64.8943 77.3039 64.2721 77.181 63.728 76.884C63.1839 76.587 62.7439 76.1302 62.4676 75.5752C61.7019 74.0504 62.6127 72.568 62.6618 72.4944L57.4623 72.4497Z" fill="#BEBCFA" stroke="#4540DB" stroke-width="1.56275" stroke-miterlimit="10"/>
<path d="M31.5808 53.5024H38.3587C38.3697 54.6825 38.8411 55.8115 39.6723 56.6492C40.5036 57.4868 41.629 57.9668 42.8089 57.9868C43.9888 58.0069 45.1299 57.5655 45.9892 56.7567C46.8485 55.9478 47.358 54.8355 47.4092 53.6565L54.033 53.5404C54.0598 55.2475 54.0859 56.9546 54.1112 58.6617C55.5109 58.0612 57.0491 58.2755 58.0002 59.202C58.1051 59.3025 59.1388 60.3428 58.8932 61.7046C58.6476 63.0665 57.2724 63.8411 56.1584 63.9773C55.4506 64.0526 54.737 63.9042 54.1179 63.5531L54.0777 68.7526L47.34 68.7906C47.1837 66.8796 46.0518 65.2476 44.4132 64.5935C43.3327 64.1802 42.1353 64.1937 41.0644 64.6314C39.4593 65.3168 38.3854 66.9443 38.2515 68.8308L31.5808 68.8777C31.5674 67.1824 31.5547 65.488 31.5428 63.7943C31.1128 64.0011 30.645 64.1179 30.1682 64.1375C29.6914 64.1571 29.2156 64.079 28.7701 63.9081C28.587 63.8344 27.0198 63.1625 26.8055 61.5595C26.7342 60.943 26.8543 60.3195 27.1494 59.7736C27.4446 59.2277 27.9005 58.7857 28.4553 58.5077C29.9801 57.742 31.4602 58.6528 31.5361 58.7019C31.554 56.968 31.5689 55.2349 31.5808 53.5024Z" stroke="#4540DB" stroke-width="1.56275" stroke-miterlimit="10"/>
</g>
<defs>
<clipPath id="clip0_74_2470">
<rect width="56" height="56.0447" fill="white" transform="translate(26 21.9954)"/>
</clipPath>
<clipPath id="clip1_74_2470">
<rect width="56" height="56.0447" fill="white" transform="translate(26 21.9954)"/>
</clipPath>
</defs>
</svg>
