<svg width="42" height="42" viewBox="0 0 42 42" fill="none" xmlns="http://www.w3.org/2000/svg">
<path d="M31.5 14C31.5 11.2152 30.3938 8.54451 28.4246 6.57538C26.4555 4.60625 23.7848 3.5 21 3.5C18.2152 3.5 15.5445 4.60625 13.5754 6.57538C11.6062 8.54451 10.5 11.2152 10.5 14C10.5 26.25 5.25 29.75 5.25 29.75H36.75C36.75 29.75 31.5 26.25 31.5 14Z" stroke="#292929" stroke-width="3" stroke-linecap="round" stroke-linejoin="round"/>
<path d="M24.0275 36.75C23.7198 37.2804 23.2782 37.7206 22.7469 38.0267C22.2156 38.3327 21.6132 38.4938 21 38.4938C20.3868 38.4938 19.7844 38.3327 19.2531 38.0267C18.7218 37.7206 18.2802 37.2804 17.9725 36.75" stroke="#292929" stroke-width="3" stroke-linecap="round" stroke-linejoin="round"/>
</svg>
