<svg width="101" height="100" viewBox="0 0 101 100" fill="none" xmlns="http://www.w3.org/2000/svg">
<rect x="0.5" width="100" height="100" rx="50" fill="#F7F8FE"/>
<path d="M61.0314 73.3333C61.616 73.3369 62.1955 73.217 62.7359 72.9807C63.2764 72.7443 63.767 72.3962 64.1792 71.9567L70.1446 65.6333C70.5546 65.1962 70.7847 64.6048 70.7847 63.9883C70.7847 63.3719 70.5546 62.7805 70.1446 62.3433L61.3396 53.01C60.9271 52.5754 60.3692 52.3315 59.7877 52.3315C59.2061 52.3315 58.6482 52.5754 58.2358 53.01L54.7138 56.72C52.2753 56.0308 50.017 54.7621 48.11 53.01C46.4615 50.9854 45.2652 48.5927 44.61 46.01L48.11 42.2767C48.52 41.8395 48.7501 41.2481 48.7501 40.6317C48.7501 40.0152 48.52 39.4238 48.11 38.9867L39.305 29.6533C38.8925 29.2187 38.3346 28.9748 37.7531 28.9748C37.1715 28.9748 36.6136 29.2187 36.2012 29.6533L30.2578 36C29.8432 36.4369 29.5148 36.957 29.2918 37.5298C29.0688 38.1027 28.9557 38.7169 28.9591 39.3367C29.1588 48.302 32.5385 56.8583 38.4245 63.3C44.5015 69.5392 52.5735 73.1216 61.0314 73.3333ZM37.7641 34.6233L43.4653 40.6667L40.6257 43.6767C40.3568 43.9437 40.1554 44.2781 40.04 44.649C39.9246 45.02 39.8989 45.4158 39.9653 45.8C40.7881 49.6975 42.5301 53.3102 45.0282 56.3C47.8466 58.9515 51.2557 60.7984 54.9339 61.6667C55.2909 61.7458 55.6608 61.7296 56.0105 61.6197C56.3601 61.5097 56.6785 61.3094 56.937 61.0367L59.7767 57.9567L65.4779 64L61.0754 68.6667C53.7754 68.4674 46.8102 65.3793 41.5503 60.01C36.4718 54.4322 33.55 47.0393 33.3616 39.29L37.7641 34.6233ZM68.5817 47.6667H72.9842C73.0413 44.8923 72.5679 42.1345 71.5925 39.5593C70.6171 36.9841 69.1599 34.6449 67.3087 32.6827C65.4576 30.7205 63.2508 29.1759 60.8214 28.1419C58.3919 27.108 55.7902 26.6062 53.1729 26.6667V31.3333C55.2155 31.2584 57.2507 31.6297 59.1522 32.424C61.0536 33.2183 62.7806 34.4187 64.2258 35.9506C65.6709 37.4825 66.8034 39.3131 67.5528 41.3286C68.3021 43.3442 68.6524 45.5016 68.5817 47.6667Z" fill="#4540DB"/>
<path d="M53.1729 40.6667C57.7955 40.6667 59.7766 42.7667 59.7766 47.6667H64.1791C64.1791 40.1533 60.2609 36 53.1729 36V40.6667Z" fill="#4540DB"/>
</svg>
