<svg width="107" height="100" viewBox="0 0 107 100" fill="none" xmlns="http://www.w3.org/2000/svg">
<rect x="0.5" width="106" height="100" rx="50" fill="#F7F8FE"/>
<g clip-path="url(#clip0_74_2536)">
<path d="M55.5171 64.0971L61.8088 64.0181V59.91C62.4628 60.2165 63.1918 60.3263 63.9071 60.2261C65.7368 59.9543 66.6279 58.33 66.7322 58.1278L66.8934 38.924C66.6692 37.4081 66.0256 35.9852 65.0353 34.8159C63.7844 33.3716 62.0752 32.4009 60.194 32.0666L47.3673 31.9086C45.4276 32.3997 43.6831 33.4687 42.3649 34.9739C41.3459 36.1567 40.6253 37.5665 40.2634 39.0852L40.1054 57.1576C40.1277 57.7117 40.3063 58.2481 40.6206 58.705C40.9349 59.1618 41.372 59.5204 41.8814 59.7394C42.3141 59.9039 42.7785 59.9678 43.2395 59.9262C43.7005 59.8846 44.146 59.7386 44.5422 59.4992C44.6243 67.2161 44.7055 74.9351 44.7855 82.6563C44.8589 83.5285 45.2382 84.3468 45.8563 84.9666C46.4744 85.5864 47.2916 85.968 48.1636 86.0439C48.8943 86.0681 49.6156 85.8735 50.235 85.485C50.8544 85.0965 51.3435 84.5318 51.6397 83.8634L51.4785 62.16C51.4785 61.4237 52.316 60.7253 53.2134 60.6274C54.1109 60.5294 54.9831 61.0572 55.3528 62.2422C55.5359 62.8424 55.5919 63.4741 55.5171 64.0971Z" fill="white" stroke="#4540DB" stroke-width="2.21205" stroke-linecap="round" stroke-linejoin="round"/>
<path d="M44.9469 43.4427C44.9469 49.1593 44.6309 54.8727 44.6309 60.5893" stroke="#4540DB" stroke-width="2.21205" stroke-linecap="round" stroke-linejoin="round"/>
<path d="M61.8091 59.5781V43.4617" stroke="#4540DB" stroke-width="2.21205" stroke-linecap="round" stroke-linejoin="round"/>
<path d="M55.5709 64.2331C55.5709 66.4641 55.5793 68.6962 55.5962 70.9293L61.8089 70.8756C61.7014 68.6951 61.91 66.5178 61.8089 64.3405C59.8307 64.3026 57.5428 64.2679 55.5709 64.2331Z" fill="#BEBCFA" stroke="#4540DB" stroke-width="2.21205" stroke-linecap="round" stroke-linejoin="round"/>
<path d="M58.3803 71.1979V86.1261H55.6784H61.4361" stroke="#4540DB" stroke-width="2.21205" stroke-linecap="round" stroke-linejoin="round"/>
<path d="M53.9848 27.9519C58.0845 27.9519 61.4079 24.6285 61.4079 20.5289C61.4079 16.4293 58.0845 13.1059 53.9848 13.1059C49.8852 13.1059 46.5618 16.4293 46.5618 20.5289C46.5618 24.6285 49.8852 27.9519 53.9848 27.9519Z" fill="white" stroke="#4540DB" stroke-width="2.21205" stroke-miterlimit="10"/>
</g>
<defs>
<clipPath id="clip0_74_2536">
<rect width="29" height="75.2319" fill="white" transform="translate(39 12)"/>
</clipPath>
</defs>
</svg>
