<svg width="250" height="93" viewBox="0 0 250 93" fill="none" xmlns="http://www.w3.org/2000/svg">
<path d="M64.514 52.038C64.514 52.21 64.428 53.414 64.256 55.65H29.254C29.8847 58.5167 31.3753 60.7813 33.726 62.444C36.0767 64.1067 39.0007 64.938 42.498 64.938C44.906 64.938 47.0273 64.594 48.862 63.906C50.754 63.1607 52.5027 62.014 54.108 60.466L61.246 68.206C56.8887 73.194 50.5247 75.688 42.154 75.688C36.9367 75.688 32.3213 74.6847 28.308 72.678C24.2947 70.614 21.1987 67.776 19.02 64.164C16.8413 60.552 15.752 56.4527 15.752 51.866C15.752 47.3367 16.8127 43.266 18.934 39.654C21.1127 35.9847 24.0653 33.1467 27.792 31.14C31.576 29.076 35.79 28.044 40.434 28.044C44.9633 28.044 49.0627 29.0187 52.732 30.968C56.4013 32.9173 59.268 35.7267 61.332 39.396C63.4533 43.008 64.514 47.222 64.514 52.038ZM40.52 38.192C37.4813 38.192 34.93 39.052 32.866 40.772C30.802 42.492 29.5407 44.8427 29.082 47.824H51.872C51.4133 44.9 50.152 42.578 48.088 40.858C46.024 39.0807 43.5013 38.192 40.52 38.192ZM90.8481 28.044C98.0148 28.044 103.519 29.764 107.36 33.204C111.201 36.5867 113.122 41.718 113.122 48.598V75H100.566V69.238C98.0435 73.538 93.3421 75.688 86.4621 75.688C82.9075 75.688 79.8115 75.086 77.1741 73.882C74.5941 72.678 72.6161 71.0153 71.2401 68.894C69.8641 66.7727 69.1761 64.3647 69.1761 61.67C69.1761 57.37 70.7815 53.9873 73.9921 51.522C77.2601 49.0567 82.2768 47.824 89.0421 47.824H99.7061C99.7061 44.9 98.8175 42.664 97.0401 41.116C95.2628 39.5107 92.5968 38.708 89.0421 38.708C86.5768 38.708 84.1401 39.1093 81.7321 39.912C79.3815 40.6573 77.3748 41.6893 75.7121 43.008L70.8961 33.634C73.4188 31.8567 76.4288 30.4807 79.9261 29.506C83.4808 28.5313 87.1215 28.044 90.8481 28.044ZM89.8161 66.658C92.1095 66.658 94.1448 66.142 95.9221 65.11C97.6995 64.0207 98.9608 62.444 99.7061 60.38V55.65H90.5041C85.0001 55.65 82.2481 57.456 82.2481 61.068C82.2481 62.788 82.9075 64.164 84.2261 65.196C85.6021 66.1707 87.4655 66.658 89.8161 66.658ZM140.83 75.688C136.989 75.688 133.234 75.2293 129.564 74.312C125.895 73.3373 122.971 72.1333 120.792 70.7L125.264 61.068C127.328 62.3867 129.822 63.476 132.746 64.336C135.67 65.1387 138.537 65.54 141.346 65.54C147.022 65.54 149.86 64.1353 149.86 61.326C149.86 60.0073 149.086 59.0613 147.538 58.488C145.99 57.9147 143.611 57.4273 140.4 57.026C136.616 56.4527 133.492 55.7933 131.026 55.048C128.561 54.3027 126.411 52.984 124.576 51.092C122.799 49.2 121.91 46.5053 121.91 43.008C121.91 40.084 122.742 37.504 124.404 35.268C126.124 32.9747 128.59 31.1973 131.8 29.936C135.068 28.6747 138.91 28.044 143.324 28.044C146.592 28.044 149.832 28.4167 153.042 29.162C156.31 29.85 159.005 30.8247 161.126 32.086L156.654 41.632C152.584 39.3387 148.14 38.192 143.324 38.192C140.458 38.192 138.308 38.5933 136.874 39.396C135.441 40.1987 134.724 41.2307 134.724 42.492C134.724 43.9253 135.498 44.9287 137.046 45.502C138.594 46.0753 141.06 46.62 144.442 47.136C148.226 47.7667 151.322 48.4547 153.73 49.2C156.138 49.888 158.231 51.178 160.008 53.07C161.786 54.962 162.674 57.5993 162.674 60.982C162.674 63.8487 161.814 66.4 160.094 68.636C158.374 70.872 155.852 72.6207 152.526 73.882C149.258 75.086 145.36 75.688 140.83 75.688ZM216.036 28.732L195.138 77.838C193.017 83.17 190.379 86.9253 187.226 89.104C184.13 91.2827 180.375 92.372 175.96 92.372C173.552 92.372 171.173 91.9993 168.822 91.254C166.471 90.5087 164.551 89.4767 163.06 88.158L167.962 78.612C168.994 79.5293 170.169 80.246 171.488 80.762C172.864 81.278 174.211 81.536 175.53 81.536C177.365 81.536 178.855 81.0773 180.002 80.16C181.149 79.3 182.181 77.838 183.098 75.774L183.27 75.344L163.232 28.732H177.078L190.064 60.122L203.136 28.732H216.036ZM223.813 75.688C221.462 75.688 219.484 74.8853 217.879 73.28C216.274 71.6747 215.471 69.668 215.471 67.26C215.471 64.7947 216.274 62.8167 217.879 61.326C219.484 59.778 221.462 59.004 223.813 59.004C226.164 59.004 228.142 59.778 229.747 61.326C231.352 62.8167 232.155 64.7947 232.155 67.26C232.155 69.668 231.352 71.6747 229.747 73.28C228.142 74.8853 226.164 75.688 223.813 75.688Z" fill="black"/>
<path d="M2 51H248" stroke="#EB5757" stroke-width="4" stroke-linecap="round"/>
</svg>
