<svg width="54" height="54" viewBox="0 0 54 54" fill="none" xmlns="http://www.w3.org/2000/svg">
<path d="M12.3853 32.4739L10.5578 39.2959L3.87841 39.4372C1.88225 35.7348 0.75 31.4989 0.75 26.9976C0.75 22.6448 1.80863 18.54 3.68512 14.9257H3.68656L9.63309 16.0158L12.238 21.9265C11.6928 23.5159 11.3957 25.2221 11.3957 26.9976C11.3959 28.9244 11.7449 30.7706 12.3853 32.4739Z" fill="#FBBB00"/>
<path d="M52.7914 22.0946C53.0929 23.6825 53.2501 25.3224 53.2501 26.9983C53.2501 28.8776 53.0525 30.7108 52.6761 32.479C51.3982 38.4962 48.0592 43.7504 43.4337 47.4686L43.4322 47.4672L35.9422 47.085L34.8822 40.4678C37.9514 38.6679 40.3501 35.8511 41.6136 32.479H27.5768V22.0946H41.8183H52.7914Z" fill="#518EF8"/>
<path d="M43.4318 47.4693L43.4333 47.4707C38.9347 51.0865 33.2201 53.2499 26.9994 53.2499C17.0026 53.2499 8.31119 47.6626 3.87744 39.4401L12.3843 32.4768C14.6011 38.393 20.3084 42.6045 26.9994 42.6045C29.8754 42.6045 32.5697 41.8271 34.8817 40.4699L43.4318 47.4693Z" fill="#28B446"/>
<path d="M43.756 6.79313L35.252 13.755C32.8592 12.2594 30.0307 11.3954 27.0004 11.3954C20.158 11.3954 14.344 15.8001 12.2382 21.9284L3.68662 14.9276H3.68518C8.05402 6.50469 16.8551 0.75 27.0004 0.75C33.3697 0.75 39.2097 3.01874 43.756 6.79313Z" fill="#F14336"/>
</svg>
