<svg width="523" height="412" viewBox="0 0 523 412" fill="none" xmlns="http://www.w3.org/2000/svg">
<path d="M482.644 410C482.644 410 548.734 315.14 511.761 196.288C487.421 118.044 435.556 88.4152 354.216 64.6922C276.732 42.0952 251.511 -3.28741 158.65 0.188843C111.867 1.94159 48.4965 39.7263 16.3824 129.705C-12.8852 211.707 -4.69513 335.527 55.2408 409.256L482.644 410Z" fill="white"/>
<path d="M2.10669 412H483.894C484.505 412 485 411.552 485 410.999C485 410.448 484.505 410 483.894 410H2.10669C1.49512 410 1 410.448 1 410.999C1 411.552 1.49512 412 2.10669 412Z" fill="#21111D"/>
<path d="M134.999 174.546L134.771 174.54C133.93 174.519 133.107 174.47 132.284 174.391L132.058 174.371L132.014 174.82L132.242 174.843C133.073 174.924 133.906 174.974 134.76 174.995L134.986 175L134.999 174.546ZM127.181 173.43L127.058 173.866L127.275 173.926C128.064 174.151 128.892 174.342 129.739 174.496L129.962 174.538L130.043 174.091L129.82 174.049C128.989 173.898 128.174 173.71 127.401 173.49L127.181 173.43ZM139.979 174.331L139.75 174.352C138.914 174.433 138.078 174.491 137.263 174.522L137.035 174.53L137.054 174.984L137.282 174.974C138.105 174.943 138.949 174.885 139.795 174.804L140.02 174.783L139.979 174.331ZM144.911 173.574L144.688 173.618C143.876 173.783 143.047 173.926 142.23 174.049L142.004 174.083L142.07 174.53L142.295 174.499C143.123 174.373 143.957 174.229 144.777 174.062L145 174.018L144.911 173.574ZM122.623 171.505L122.401 171.9L122.6 172.012C123.321 172.417 124.088 172.785 124.883 173.106L125.092 173.193L125.263 172.775L125.053 172.688C124.277 172.372 123.528 172.012 122.823 171.617L122.623 171.505ZM111.765 169.536L111.537 169.541C110.733 169.564 109.899 169.533 109.061 169.455L108.835 169.431L108.791 169.883L109.019 169.904C109.873 169.988 110.725 170.016 111.55 169.995L111.776 169.988L111.765 169.536ZM103.987 168.392L103.85 168.823L104.068 168.891C104.875 169.144 105.698 169.358 106.516 169.528L106.739 169.572L106.83 169.128L106.608 169.084C105.806 168.919 104.998 168.708 104.204 168.46L103.987 168.392ZM116.603 168.627L116.388 168.703C115.642 168.964 114.837 169.167 113.998 169.309L113.776 169.348L113.852 169.794L114.074 169.755C114.939 169.612 115.767 169.4 116.538 169.128L116.753 169.053L116.603 168.627ZM118.627 168.585L118.325 168.925L118.496 169.073C119.119 169.622 119.785 170.152 120.472 170.646L120.655 170.776L120.922 170.411L120.736 170.278C120.063 169.792 119.408 169.275 118.797 168.734L118.627 168.585ZM99.4422 166.404L99.2247 166.801L99.4239 166.911C100.158 167.313 100.923 167.684 101.696 168.013L101.906 168.102L102.084 167.686L101.874 167.598C101.117 167.274 100.365 166.908 99.6414 166.514L99.4422 166.404ZM120.666 165.97L120.508 166.135C119.963 166.707 119.324 167.222 118.608 167.658L118.414 167.778L118.653 168.162L118.844 168.044C119.594 167.587 120.265 167.049 120.839 166.448L120.996 166.284L120.666 165.97ZM95.4376 163.51L95.1336 163.844L95.3013 163.998C95.9277 164.56 96.5934 165.093 97.2748 165.576L97.4609 165.707L97.723 165.336L97.5395 165.205C96.8686 164.732 96.2186 164.213 95.6053 163.661L95.4376 163.51ZM115.317 164.907L114.95 165.176L115.083 165.359C115.573 166.028 116.113 166.683 116.69 167.308L116.842 167.475L117.177 167.169L117.023 167.002C116.462 166.391 115.932 165.748 115.45 165.09L115.317 164.907ZM92.1956 159.777L91.8261 160.039L91.9572 160.224C92.4499 160.916 92.9766 161.582 93.5244 162.201L93.6738 162.371L94.0145 162.071L93.8651 161.901C93.3278 161.292 92.8089 160.642 92.3267 159.963L92.1956 159.777ZM122.783 161.645L122.731 161.864C122.66 162.18 122.576 162.491 122.482 162.792C122.33 163.267 122.141 163.727 121.918 164.16L121.814 164.361L122.22 164.568L122.322 164.367C122.558 163.912 122.757 163.429 122.914 162.927C123.014 162.617 123.1 162.293 123.176 161.964L123.226 161.744L122.783 161.645ZM112.966 160.574L112.541 160.741L112.625 160.953C112.926 161.716 113.293 162.483 113.715 163.236L113.825 163.432L114.221 163.212L114.111 163.014C113.7 162.28 113.34 161.53 113.047 160.786L112.966 160.574ZM89.7609 155.465L89.3468 155.653L89.4438 155.859C89.8002 156.633 90.1907 157.385 90.5995 158.098L90.7123 158.296L91.1054 158.069L90.9927 157.873C90.5917 157.173 90.209 156.432 89.8552 155.669L89.7609 155.465ZM123.192 156.687L122.747 156.776L122.791 156.998C122.951 157.787 123.027 158.605 123.017 159.435L123.014 159.66L123.467 159.668L123.47 159.441C123.48 158.579 123.402 157.727 123.237 156.91L123.192 156.687ZM112.069 155.779L111.613 155.773L111.611 156.001C111.603 156.795 111.695 157.646 111.883 158.529L111.933 158.751L112.376 158.654L112.329 158.435C112.145 157.583 112.056 156.766 112.067 156.006L112.069 155.779ZM88.0573 150.803L87.6197 150.931L87.6852 151.148C87.9237 151.965 88.191 152.767 88.4767 153.535L88.5553 153.746L88.9825 153.59L88.9013 153.378C88.6209 152.621 88.3588 151.827 88.1203 151.02L88.0573 150.803ZM120.799 152.226L120.48 152.548L120.639 152.709C121.182 153.248 121.648 153.914 122.023 154.687L122.12 154.89L122.532 154.692L122.432 154.488C122.034 153.671 121.541 152.963 120.959 152.388L120.799 152.226ZM113.922 151.354L113.726 151.469C112.989 151.889 112.428 152.566 112.067 153.472L111.983 153.684L112.405 153.851L112.489 153.639C112.814 152.83 113.306 152.231 113.954 151.861L114.15 151.748L113.922 151.354ZM117.353 150.717C116.981 150.69 116.596 150.698 116.208 150.743L115.982 150.766L116.029 151.215L116.257 151.192C116.619 151.153 116.976 151.145 117.319 151.168H117.321C117.772 151.202 118.213 151.291 118.629 151.435L118.844 151.508L118.994 151.082L118.779 151.006C118.325 150.85 117.846 150.753 117.353 150.717ZM86.9802 145.95L86.532 146.023L86.5714 146.247C86.7076 147.078 86.8701 147.909 87.0536 148.713L87.1034 148.935L87.5463 148.833L87.4965 148.614C87.3156 147.817 87.1558 146.997 87.0195 146.172L86.9802 145.95ZM86.4534 141L86 141.026L86.0131 141.253C86.0603 142.081 86.1337 142.925 86.2254 143.758L86.249 143.983L86.7024 143.933L86.6762 143.709C86.5845 142.883 86.5137 142.05 86.4665 141.227L86.4534 141Z" fill="#33192C"/>
<path d="M83.3292 141L83.7663 136.857C83.7663 136.857 75.3745 125.909 75.3124 125.704C75.2504 125.501 73 118 73 118L79.5165 124.074L88 135.981L83.3292 141Z" fill="#3093B3"/>
<path d="M96 134.455L73 118L88.3067 137L96 134.455Z" fill="#4CB7D8"/>
<path d="M84 138.21L75.8341 141L73 118L84 138.21Z" fill="#4CB7D8"/>
<path d="M78 386.358L103.015 395L105.801 389.4L115 369.357L88.9165 361L78 386.358Z" fill="#FE9F73"/>
<path d="M104.282 396.872L82.2922 389.617L76.5941 377L57.069 381.294L53.5587 380.135C52.3485 379.734 50.9658 380.185 50.3464 381.294C49.5099 382.786 50.2627 384.581 51.8075 385.091L102.939 401.963C103.312 402.088 103.72 401.885 103.843 401.51L104.946 398.192C105.129 397.645 104.831 397.054 104.282 396.872Z" fill="#C3B9DD"/>
<path d="M104.873 398L108 388.608C108 388.608 105.854 382.148 99.0762 382.852C99.0762 382.852 88.0615 386.207 82.7373 376L60.3444 378.181C60.3444 378.181 54.3997 378.197 52 380.576L104.873 398Z" fill="#E33A44"/>
<path d="M104.446 398L104 397.852L107.551 387L108 387.152L104.446 398Z" fill="black"/>
<path d="M89.175 382.038C88.4376 381.732 88.0108 381.466 88 381.456L88.1837 381C88.2242 381.024 92.5678 383.73 97.8866 381.783L98 382.276C94.1912 383.672 90.8633 382.743 89.175 382.038Z" fill="black"/>
<path d="M100.069 394L100 393.364L101.931 392L102 392.636L100.069 394Z" fill="black"/>
<path d="M98.1063 392L98 391.683L100.894 391L101 391.317L98.1063 392Z" fill="black"/>
<path d="M50.4271 384.247C49.98 383.546 49.8777 382.696 50.1497 381.915C50.656 380.451 52.3095 379.658 53.8391 380.142L105.928 396.648C106.746 396.908 107.191 397.756 106.921 398.542L106.068 401L105.683 400.879L106.534 398.418C106.736 397.838 106.407 397.21 105.798 397.017L53.7098 380.511C52.3956 380.093 50.9711 380.779 50.5348 382.036C50.3032 382.708 50.3893 383.44 50.7744 384.046L50.4271 384.247Z" fill="black"/>
<path d="M52.2913 381L52 380.711C52.0715 380.633 53.8139 378.761 58.2336 378.372C62.5764 377.991 81.767 376.019 81.9603 376L82 376.417C81.8067 376.437 62.6108 378.411 58.2653 378.792C54.0152 379.165 52.3072 380.983 52.2913 381Z" fill="black"/>
<path d="M266.832 247.027C266.832 247.027 276.731 282.214 254.225 289.926C231.722 297.635 154.749 291.657 154.749 291.657L120.487 379C120.487 379 96.9551 375.818 86 361.232C86 361.232 116.741 259.727 130.065 253.5C143.39 247.272 201.869 241 201.869 241L266.832 247.027Z" fill="#43A2BF"/>
<path d="M120.883 379L120.965 378.786L143 323.211L142.463 323L120.516 378.362C118.042 377.937 96.1351 373.856 86.4624 360.909L86 361.252C96.3503 375.104 120.413 378.929 120.654 378.966L120.883 379Z" fill="black"/>
<path d="M225.387 190.438L222 230.973L236.105 236C236.105 236 248.935 205.048 249 204.439C249.062 203.832 240.515 187.217 239.146 187.009C237.779 186.798 225.387 190.438 225.387 190.438Z" fill="#F49069"/>
<path d="M244 407H245V240H244V407Z" fill="#695564"/>
<path d="M161 323V324H329V323H161Z" fill="#695564"/>
<path d="M186 381.973L187.036 383L306 265.028L304.965 264L186 381.973Z" fill="#695564"/>
<path d="M187.036 264L186 265.028L304.965 383L306 381.973L187.036 264Z" fill="#695564"/>
<path d="M245.501 401.765C288.173 401.765 322.765 367.174 322.765 324.501C322.765 281.829 288.173 247.235 245.501 247.235C202.828 247.235 168.235 281.829 168.235 324.501C168.235 367.174 202.828 401.765 245.501 401.765ZM245.501 239C292.721 239 331 277.28 331 324.501C331 371.722 292.721 410 245.501 410C198.28 410 160 371.722 160 324.501C160 277.28 198.28 239 245.501 239Z" fill="#695564"/>
<path d="M228 324C228 333.388 236.06 341 246 341C255.94 341 264 333.388 264 324C264 314.61 255.94 307 246 307C236.06 307 228 314.61 228 324Z" fill="#695564"/>
<path d="M348 180H303.389C297.728 180 292.818 183.877 291.551 189.348L265 304L327.205 297.569L348 180Z" fill="#FEC786"/>
<path d="M152 402H156.108L210 298H205.889L152 402Z" fill="#695564"/>
<path d="M174 287H197V307H174V287Z" fill="#FEC786"/>
<path d="M197.141 292.165C197.141 292.165 295.175 292.165 316.383 292.165C319.805 292.165 322.739 289.72 323.361 286.346L342.217 184.053C342.724 181.306 345.404 179.509 348.151 180.119C350.767 180.701 352.401 183.327 351.914 185.967L329.981 300.365C329.815 301.264 329.413 302.056 328.857 302.701C327.482 305.259 324.785 307 321.682 307H196.569C192.071 307 189 304.832 189 300.325C189 295.818 192.643 292.165 197.141 292.165Z" fill="#F99247"/>
<path d="M316.39 293C319.941 293 322.987 290.415 323.632 286.854L342.162 184.526C342.385 183.299 343.069 182.245 344.089 181.554C345.108 180.866 346.328 180.637 347.525 180.906C347.735 180.954 347.944 180.821 347.991 180.605C348.037 180.391 347.904 180.178 347.694 180.13C346.288 179.812 344.855 180.082 343.657 180.893C342.459 181.701 341.656 182.941 341.395 184.382L322.864 286.71C322.287 289.892 319.565 292.205 316.39 292.205C316.175 292.205 316 292.384 316 292.603C316 292.824 316.175 293 316.39 293Z" fill="#21111D"/>
<path d="M108 386.358L133.688 395L136.552 389.4L146 369.357L119.212 361L108 386.358Z" fill="#FE9F73"/>
<path d="M133.269 396.872L110.88 389.617L105.076 377L85.1995 381.294L81.6228 380.135C80.3906 379.734 78.9855 380.185 78.3521 381.294C77.5005 382.786 78.2696 384.581 79.8424 385.091L131.899 401.963C132.282 402.088 132.694 401.885 132.822 401.51L133.945 398.192C134.131 397.645 133.828 397.054 133.269 396.872Z" fill="#C3B9DD"/>
<path d="M132.929 398L136 388.608C136 388.608 133.89 382.148 127.236 382.852C127.236 382.852 116.418 386.207 111.188 376L89.1953 378.181C89.1953 378.181 83.3569 378.197 81 380.576L132.929 398Z" fill="#FF424D"/>
<path d="M132.447 398L132 397.852L135.553 387L136 387.152L132.447 398Z" fill="black"/>
<path d="M119.06 382.038C118.394 381.732 118.012 381.466 118 381.456L118.165 381C118.204 381.024 122.112 383.73 126.898 381.783L127 382.276C123.571 383.672 120.576 382.743 119.06 382.038Z" fill="black"/>
<path d="M128.142 394L128 393.364L131.858 392L132 392.636L128.142 394Z" fill="black"/>
<path d="M127.138 392L127 391.683L130.862 391L131 391.317L127.138 392Z" fill="black"/>
<path d="M78.4202 384.247C77.981 383.546 77.8805 382.696 78.1451 381.915C78.6425 380.451 80.2697 379.658 81.7698 380.142L132.945 396.648C133.752 396.908 134.189 397.756 133.921 398.542L133.085 401L132.707 400.879L133.543 398.418C133.742 397.838 133.416 397.21 132.821 397.017L81.6455 380.511C80.3517 380.093 78.9547 380.779 78.5261 382.036C78.2959 382.708 78.3832 383.44 78.7616 384.046L78.4202 384.247Z" fill="black"/>
<path d="M81.2983 381L81 380.711C81.0739 380.633 82.8744 378.761 87.4414 378.372C91.9262 377.991 111.759 376.019 111.959 376L112 376.417C111.8 376.437 91.9646 378.411 87.4742 378.792C83.0824 379.165 81.3174 380.983 81.2983 381Z" fill="black"/>
<path d="M295.832 247.027C295.832 247.027 305.73 282.214 283.226 289.926C260.723 297.635 183.751 291.657 183.751 291.657L149.49 379C149.49 379 125.958 375.818 115 361.232C115 361.232 145.741 259.727 159.067 253.5C172.392 247.272 230.871 241 230.871 241L295.832 247.027Z" fill="#4CB7D8"/>
<path d="M150.493 379L150.58 378.786L173 323.211L172.454 323L150.12 378.362C147.603 377.937 125.315 373.856 115.47 360.909L115 361.252C125.534 375.104 150.017 378.929 150.263 378.966L150.493 379Z" fill="black"/>
<path d="M285.55 241L286 240.715L279.45 233L279 233.285L285.55 241Z" fill="black"/>
<path d="M285.509 248L286 247.703L281.491 240L281 240.297L285.509 248Z" fill="black"/>
<path d="M233.463 294C251.589 294 272.783 293.324 283.194 290.54C291.666 288.273 296.711 280.695 297.785 268.621C298.59 259.577 296.876 251.085 296.859 251L296.106 251.153C296.124 251.238 297.817 259.632 297.019 268.568C295.959 280.455 291.24 287.597 282.995 289.803C262.978 295.154 202.64 292.661 202.035 292.634L202 293.398C202.295 293.411 216.544 294 233.463 294Z" fill="black"/>
<path d="M237.673 227.713L238.965 197.332C235.106 198.14 228.785 195.314 224.103 192.767C225.221 171.14 227.694 150.12 233.042 146.931C243.319 140.807 265.58 137.585 278.797 139.598C278.797 139.598 297.82 143.335 302.218 145.948C306.615 148.561 326.41 178.817 331 192.765C331 192.765 319.632 202.795 304.984 203.177L298.354 188.338L298.743 251.226C294.128 255.148 249.601 251.914 222 247.843C222 247.843 223.21 237.433 223.234 228.186C229.083 228.799 237.673 227.713 237.673 227.713Z" fill="#FF424D"/>
<path d="M255.002 107.56V125.506C255.002 125.506 254.752 131.571 259.978 132.329L259.002 140.422C258.64 143.431 260.411 146.31 263.257 147.226C264.648 147.674 266.309 148 268.192 148C274.166 148 277.399 143.452 277.899 141.177C278.396 138.9 276.903 128.034 276.903 128.034L277.086 122.693L276.406 102L255.002 107.56Z" fill="#FE9F73"/>
<path d="M269.741 117C269.804 117 269.87 116.971 269.921 116.912C270.024 116.792 270.026 116.59 269.929 116.463C269.892 116.417 266.342 111.945 263.097 115.164C262.986 115.272 262.967 115.473 263.057 115.61C263.147 115.747 263.308 115.77 263.419 115.659C266.295 112.805 269.424 116.733 269.556 116.902C269.606 116.967 269.672 117 269.741 117Z" fill="#21111D"/>
<path d="M258.76 115C258.829 115 258.895 114.967 258.942 114.898C259.028 114.774 259.018 114.591 258.917 114.482C258.821 114.38 256.531 111.982 255.084 113.505C254.984 113.61 254.971 113.793 255.057 113.917C255.143 114.04 255.296 114.055 255.396 113.95C256.531 112.758 258.583 114.907 258.603 114.928C258.649 114.976 258.706 115 258.76 115Z" fill="#21111D"/>
<path d="M265 117.5C265 118.329 265.224 119 265.5 119C265.776 119 266 118.329 266 117.5C266 116.671 265.776 116 265.5 116C265.224 116 265 116.671 265 117.5Z" fill="black"/>
<path d="M256 116.5C256 117.329 256.224 118 256.5 118C256.775 118 257 117.329 257 116.5C257 115.671 256.775 115 256.5 115C256.224 115 256 115.671 256 116.5Z" fill="black"/>
<path d="M276.075 101.482L271.699 107.898C271.699 107.898 258.446 113.228 251.655 106.914C244.861 100.601 246.95 97.5679 248.943 94.4072C249.925 92.8476 254.611 89.6758 260.358 92.3185C263.496 93.7617 265.815 89.4569 269.474 91.6204C273.133 93.7867 277.447 97.5347 276.963 99.0195C276.481 100.501 276.075 101.482 276.075 101.482Z" fill="#21111D"/>
<path d="M275.099 99.0025C275.099 99.0025 280.815 98.6975 282.411 104.773C284.007 110.848 281.861 114.03 281.805 115.841C281.75 117.651 282.863 129.861 275.099 128.952L273 108.783L275.702 100.752L275.099 99.0025Z" fill="#21111D"/>
<path d="M237.599 222L237 221.976L238.401 165L239 165.024L237.599 222Z" fill="#21111D"/>
<path d="M270 117.499C270 119.984 272.014 122 274.499 122C276.986 122 279 119.984 279 117.499C279 115.014 276.986 113 274.499 113C272.014 113 270 115.014 270 117.499Z" fill="#FE9F73"/>
<path d="M274.959 119C275.99 119 276.679 118.437 276.904 117.875C277.173 117.209 276.865 116.564 276.122 116.228C275.021 115.734 274.025 116.052 273.514 116.296C273.728 115.886 274.064 115.589 274.516 115.408C275.496 115.017 276.71 115.302 276.721 115.304C276.792 115.322 276.871 115.294 276.896 115.242C276.919 115.189 276.879 115.132 276.808 115.115C276.755 115.101 275.47 114.8 274.386 115.232C273.759 115.482 273.333 115.923 273.119 116.543L273 116.894L273.35 116.64C273.401 116.603 274.581 115.771 275.976 116.398C276.749 116.746 276.817 117.381 276.639 117.818C276.456 118.273 275.908 118.799 274.959 118.799C274.951 118.799 274.94 118.799 274.931 118.799C274.855 118.799 274.793 118.842 274.793 118.898C274.793 118.953 274.852 118.998 274.928 119C274.94 119 274.948 119 274.959 119Z" fill="#F07162"/>
<path d="M272 127C272 127 271.646 137.953 259 139L259.728 132.558C259.728 132.558 267.931 134.341 272 127Z" fill="#F07162"/>
<path d="M301.12 197C317.306 194.648 326.905 185.601 327 185.511L326.439 185C326.346 185.09 316.917 193.965 301 196.277L301.12 197Z" fill="#21111D"/>
<path d="M230.198 226.254L234.604 219.222C237.03 215.194 240.948 209.914 245.028 209.446C251.694 208.682 292.288 206.971 305.168 205.338L304.067 202.22C304.086 202.376 313.781 200.571 313.781 200.571L320.511 197.696L327.003 194C328.663 200.642 333.745 213.564 329.073 221.165C320.441 235.21 254.42 228.295 248.564 226.456L243.17 232.455L242.069 234.193C241.548 235.014 240.476 235.248 239.674 234.711C238.875 234.177 238.647 233.076 239.17 232.256L238.708 232.981C238.188 233.804 237.115 234.038 236.314 233.501C235.512 232.967 235.286 231.866 235.807 231.045C235.286 231.866 234.214 232.1 233.412 231.563C232.613 231.029 232.385 229.928 232.905 229.108L233.367 228.38C232.847 229.2 231.774 229.435 230.973 228.9C230.941 228.879 230.912 228.854 230.88 228.83C230.875 228.824 230.867 228.819 230.859 228.813C230.845 228.802 230.829 228.791 230.816 228.778C230.814 228.778 230.811 228.775 230.811 228.775C230.808 228.772 230.808 228.772 230.806 228.77C230.697 228.677 230.604 228.573 230.524 228.462C229.582 227.295 230.198 226.254 230.198 226.254Z" fill="#FE9F73"/>
<path d="M304.702 203L304.945 202.995C317.756 202.699 330.634 193 330.763 192.903L331 192.722L322.875 175L322.182 175.309L330.059 192.487C328.263 193.792 316.697 201.867 305.169 202.239L301.682 195.252L301 195.581L304.702 203Z" fill="#21111D"/>
<path d="M310.638 212.994C310.721 213.011 310.812 212.994 310.885 212.943C311.015 212.85 311.038 212.676 310.938 212.557L305.531 206.106C305.431 205.985 305.244 205.965 305.115 206.058C304.985 206.151 304.962 206.323 305.062 206.444L310.469 212.895C310.513 212.946 310.573 212.98 310.638 212.994Z" fill="#F07162"/>
<path d="M232.213 227.995C232.313 228.012 232.423 227.983 232.49 227.917L238.948 221.32C239.037 221.229 239.009 221.103 238.887 221.039C238.768 220.973 238.599 220.992 238.51 221.083L232.052 227.68C231.963 227.769 231.991 227.894 232.113 227.96C232.143 227.977 232.177 227.989 232.213 227.995Z" fill="#F07162"/>
<path d="M236.158 231.993C236.237 232.018 236.321 231.975 236.369 231.878L240.966 222.437C241.028 222.308 241.003 222.136 240.91 222.047C240.819 221.961 240.693 221.996 240.631 222.125L236.034 231.563C235.972 231.692 235.997 231.867 236.09 231.953C236.111 231.973 236.133 231.987 236.158 231.993Z" fill="#F07162"/>
<path d="M239.186 232.995C239.282 233.014 239.382 232.979 239.438 232.897L243.961 226.355C244.032 226.249 244.003 226.109 243.893 226.039C243.783 225.968 243.634 225.997 243.563 226.102L239.04 232.646C238.966 232.752 238.998 232.892 239.108 232.962C239.133 232.979 239.159 232.988 239.186 232.995Z" fill="#F07162"/>
<path d="M300.785 194.458L289 168.294L289.715 168L302 195L300.785 194.458Z" fill="#21111D"/>
<path d="M260.913 123C260.949 123 260.983 122.963 260.995 122.902C261.011 122.83 260.986 122.75 260.94 122.726L259.193 121.794L259.744 115.158C259.751 115.083 259.717 115.011 259.671 115.002C259.623 114.988 259.578 115.045 259.573 115.12L259 121.987L260.886 122.991C260.895 122.997 260.904 123 260.913 123Z" fill="#F07162"/>
<path d="M264 125.124C263.922 125.109 259 125 259 125C259 125 259.618 126.952 261.448 126.999C263.279 127.044 264 125.124 264 125.124Z" fill="#FBFDFC"/>
<path d="M249.886 251L251 250.688C225.535 248.657 222.762 242.17 222.748 242.109L222.645 232L222 232.008L222.108 242.181C222.179 242.52 223.952 248.931 249.886 251Z" fill="black"/>
<path d="M231 233H249V236H231V233Z" fill="#FF424D"/>
<path d="M164 198H226.279L248 253H185.721L164 198Z" fill="#F6F7FC"/>
<path d="M248 253H244.745L223 198H226.255L248 253Z" fill="#D2E0DF"/>
<path d="M216.505 224.392C219.847 232.206 217.395 239.937 211.043 241.658C204.691 243.379 196.828 238.431 193.497 230.617C190.155 222.794 192.597 215.063 198.959 213.342C205.311 211.621 213.164 216.569 216.505 224.392Z" fill="#E2F2F1"/>
<path d="M267.81 248H245V253H267.81C269.019 253 270 251.883 270 250.501C270 249.12 269.019 248 267.81 248Z" fill="#D2E0DF"/>
<path d="M263 251H248V249H263V251Z" fill="white"/>
<path d="M299 408H301V237H299V408Z" fill="#4C222E"/>
<path d="M215 323V324H386V323H215Z" fill="#4C222E"/>
<path d="M239 382.957L240.052 384L361 264.046L359.947 263L239 382.957Z" fill="#4C222E"/>
<path d="M240.052 263L239 264.046L359.947 384L361 382.957L240.052 263Z" fill="#4C222E"/>
<path d="M301.5 402.573C345.171 402.573 380.573 367.17 380.573 323.499C380.573 279.828 345.171 244.427 301.5 244.427C257.83 244.427 222.427 279.828 222.427 323.499C222.427 367.17 257.83 402.573 301.5 402.573ZM301.5 236C349.825 236 389 275.174 389 323.499C389 371.824 349.825 411 301.5 411C253.176 411 214 371.824 214 323.499C214 275.174 253.176 236 301.5 236Z" fill="#4C222E"/>
<path d="M282 321.999C282 331.942 290.283 340 300.5 340C310.717 340 319 331.942 319 321.999C319 312.058 310.717 304 300.5 304C290.283 304 282 312.058 282 321.999Z" fill="#4C222E"/>
<path d="M148 376.804H179.349L157.183 354.302L158.148 353.319L180.317 375.824V344H181.683V375.824L203.852 353.319L204.817 354.302L182.651 376.804H214V378.193H182.651L204.817 400.695L203.852 401.678L181.683 379.176V411H180.317V379.176L158.148 401.678L157.183 400.695L179.349 378.193H148V376.804Z" fill="#4C222E"/>
<path d="M83.8325 404H172.17C174.286 404 176 402.207 176 399.999C176 397.79 174.286 396 172.17 396H83.8325C81.7169 396 80 397.79 80 399.999C80 402.207 81.7169 404 83.8325 404Z" fill="#F99247"/>
<path d="M181 406.107C196.563 406.107 209.182 393.3 209.182 377.501C209.182 361.7 196.563 348.893 181 348.893C165.437 348.893 152.82 361.7 152.82 377.501C152.82 393.3 165.437 406.107 181 406.107ZM181 344C199.225 344 214 358.998 214 377.501C214 396.002 199.225 411 181 411C162.775 411 148 396.002 148 377.501C148 358.998 162.775 344 181 344Z" fill="#4C222E"/>
<path d="M174 377.001C174 380.867 177.133 384 180.999 384C184.864 384 188 380.867 188 377.001C188 373.136 184.864 370 180.999 370C177.133 370 174 373.136 174 377.001Z" fill="#4C222E"/>
<path d="M216.794 282C217.785 282 218.748 281.467 219.254 280.531C235.546 250.366 266.85 231.625 300.95 231.625C313.494 231.625 325.661 234.096 337.113 238.968C338.536 239.574 340.177 238.904 340.778 237.475C341.38 236.043 340.714 234.392 339.292 233.788C327.146 228.621 314.246 226 300.95 226C264.799 226 231.612 245.867 214.34 277.844C213.603 279.21 214.104 280.919 215.462 281.66C215.887 281.889 216.343 282 216.794 282Z" fill="#4C222E"/>
<path d="M237.45 256C254.843 239.676 277.411 230.686 301 230.686V230C277.243 230 254.515 239.053 237 255.494L237.45 256Z" fill="#21111D"/>
<path d="M224.506 261C243.362 239.171 270.882 226.654 300.008 226.654C311.137 226.654 322.18 228.506 332.561 232.045C332.733 232.105 332.921 232.017 332.981 231.847C333.042 231.675 332.95 231.488 332.776 231.428C322.326 227.865 311.21 226 300.008 226C270.688 226 242.984 238.603 224 260.578L224.506 261Z" fill="#21111D"/>
<path d="M362 316.275C362 316.275 363.912 290.67 374.259 295.64C384.606 300.61 393.041 333.235 394.165 334.207C395.29 335.181 394.953 365 394.953 365L382.919 359.167C382.919 359.167 379.717 287.893 362 316.275Z" fill="#258D8C"/>
<path d="M374 264C374 264 395.866 283.862 401.833 317.92C407.8 351.975 388.945 362 388.945 362C388.945 362 386.262 290.388 374 264Z" fill="#7FC6A6"/>
<path d="M416.526 366.328C416.526 366.328 420.245 294.249 439 263C439 263 406.073 282.512 395.155 333.726C394.54 336.61 394.176 339.815 393.711 342.901C393.226 346.111 392.938 348.955 393.011 351.794C393.142 356.809 393.842 361.119 394.048 364.284C395.826 391.65 416.526 366.328 416.526 366.328Z" fill="#258D8C"/>
<path d="M415.001 335.016C416.26 324.633 420.137 314.735 426.368 306.408C430.869 300.394 436.08 295.823 440.149 299.086C449.191 306.333 451 351.34 451 351.34C451 351.34 440.787 320.183 436.319 322.238C431.851 324.293 427.702 366.594 427.702 366.594L411 368L415.001 335.016Z" fill="#7FC6A6"/>
<path d="M393.134 364C392.446 348.27 394.413 333.173 398.979 319.126C402.632 307.887 407.948 297.296 414.779 287.644C426.411 271.203 438.581 263.079 438.702 263L439 263.455C438.879 263.534 426.781 271.613 415.207 287.978C404.529 303.074 392.125 328.515 393.675 363.976L393.134 364Z" fill="#21111D"/>
<path d="M389.442 362C389.436 361.82 388.722 343.885 386.469 322.963C384.39 303.666 380.54 277.812 374 264.235L374.505 264C381.078 277.651 384.941 303.568 387.023 322.907C389.279 343.848 389.993 361.799 390 361.979L389.442 362Z" fill="#21111D"/>
<path d="M382.441 360C382.436 359.883 381.904 348.108 380.149 336.176C377.843 320.488 374.509 311.66 370.508 310.648C368.146 310.053 365.445 312.194 362.478 317.016L362 316.731C365.109 311.676 368.018 309.45 370.647 310.115C374.945 311.201 378.328 319.944 380.704 336.101C382.462 348.06 382.995 359.859 383 359.976L382.441 360Z" fill="#21111D"/>
<path d="M411.529 368L411 367.934L414.947 335.095C416.207 324.615 420.104 314.721 426.216 306.48C430.086 301.26 433.524 298.423 436.434 298.044C437.808 297.864 439.072 298.235 440.192 299.14C443.948 302.179 446.909 311.901 448.99 328.038C450.535 340.016 450.996 351.255 451 351.369L450.467 351.39C450.449 350.943 448.586 306.626 439.862 299.569C438.858 298.756 437.727 298.428 436.501 298.587C433.738 298.947 430.421 301.713 426.64 306.811C420.585 314.975 416.725 324.779 415.477 335.161L411.529 368Z" fill="#21111D"/>
<path d="M425.481 335L425 334.756L428.518 328L429 328.247L425.481 335Z" fill="#21111D"/>
<path d="M425.475 339L425 338.724L428.525 332L429 332.276L425.475 339Z" fill="#21111D"/>
<path d="M392.436 294L389 287.231L389.563 287L393 293.772L392.436 294Z" fill="#21111D"/>
<path d="M392.375 297L389 291.322L389.625 291L393 296.678L392.375 297Z" fill="#21111D"/>
<path d="M376.817 302L373 298.627L373.183 298L377 301.376L376.817 302Z" fill="#21111D"/>
<path d="M376.745 303L374 302.201L374.255 302L377 302.799L376.745 303Z" fill="#21111D"/>
<path d="M377 357.542C377 357.542 377.975 411.238 392.317 409.978H403.594H405.405H416.683C431.025 411.238 432 357.542 432 357.542C418.428 355.486 390.572 355.486 377 357.542Z" fill="#4CB7D8"/>
<path d="M411.399 381L411 380.641L426.601 365L427 365.361L411.399 381Z" fill="#21111D"/>
<path d="M413.461 384L413 383.649L422.539 374L423 374.351L413.461 384Z" fill="#21111D"/>
<path d="M124.407 45H200.595C203.027 45 205 46.981 205 49.4247V86.4732C205 88.9142 203.027 90.8952 200.595 90.8952H194.106L197.062 99L185.384 90.8952H124.407C121.973 90.8952 120 88.9142 120 86.4732V49.4247C120 46.981 121.973 45 124.407 45Z" fill="#F6F7FC"/>
<path d="M127.904 75H200.096C200.595 75 201 74.5529 201 74.0015C201 73.4501 200.595 73 200.096 73H127.904C127.405 73 127 73.4501 127 74.0015C127 74.5529 127.405 75 127.904 75Z" fill="#6E41E2"/>
<path d="M152.912 55H200.091C200.593 55 201 54.5529 201 53.9985C201 53.4471 200.593 53 200.091 53H152.912C152.407 53 152 53.4471 152 53.9985C152 54.5529 152.407 55 152.912 55Z" fill="#6E41E2"/>
<path d="M178.944 85H200.059C200.579 85 201 84.5529 201 83.9985C201 83.4471 200.579 83 200.059 83H178.944C178.424 83 178 83.4471 178 83.9985C178 84.5529 178.424 85 178.944 85Z" fill="#6E41E2"/>
<path d="M127.897 85H173.101C173.599 85 174 84.5529 174 83.9985C174 83.4471 173.599 83 173.101 83H127.897C127.401 83 127 83.4471 127 83.9985C127 84.5529 127.401 85 127.897 85Z" fill="#6E41E2"/>
<path d="M127.881 55H146.119C146.606 55 147 54.5529 147 53.9985C147 53.4471 146.606 53 146.119 53H127.881C127.394 53 127 53.4471 127 53.9985C127 54.5529 127.394 55 127.881 55Z" fill="#6E41E2"/>
<path d="M169.927 64H200.076C200.586 64 201 63.7761 201 63.5C201 63.2239 200.586 63 200.076 63H169.927C169.414 63 169 63.2239 169 63.5C169 63.7761 169.414 64 169.927 64Z" fill="#6E41E2"/>
<path d="M127.87 64H163.13C163.61 64 164 63.7761 164 63.5C164 63.2239 163.61 63 163.13 63H127.87C127.389 63 127 63.2239 127 63.5C127 63.7761 127.389 64 127.87 64Z" fill="#6E41E2"/>
</svg>
