<svg width="48" height="49" viewBox="0 0 48 49" fill="none" xmlns="http://www.w3.org/2000/svg">
<path d="M24 2C11.5733 2 1.5 12.0733 1.5 24.5C1.5 36.9267 11.5733 47 24 47C36.4267 47 46.5 36.9267 46.5 24.5C46.5 12.0733 36.4267 2 24 2Z" stroke="#8783E7" stroke-width="2.5" stroke-linecap="round" stroke-linejoin="round"/>
<path d="M14.9985 45.128V29L23.9985 13.25L32.9985 29V45.128" stroke="#8783E7" stroke-width="2.5" stroke-linecap="round" stroke-linejoin="round"/>
<path d="M14.9985 29.0007C14.9985 29.0007 17.5343 31.2507 19.4985 31.2507C21.4628 31.2507 23.9985 29.0007 23.9985 29.0007C23.9985 29.0007 26.5343 31.2507 28.4985 31.2507C30.4628 31.2507 32.9985 29.0007 32.9985 29.0007" stroke="#8783E7" stroke-width="2.5" stroke-linecap="round" stroke-linejoin="round"/>
</svg>
