<svg width="41" height="45" viewBox="0 0 41 45" fill="none" xmlns="http://www.w3.org/2000/svg">
<path d="M20.5 12.2725C21.6296 12.2725 22.5454 11.3567 22.5454 10.2271C22.5454 9.0974 21.6296 8.18164 20.5 8.18164C19.3704 8.18164 18.4546 9.0974 18.4546 10.2271C18.4546 11.3567 19.3704 12.2725 20.5 12.2725Z" fill="#8E83DD"/>
<path d="M8.22754 32.7266H32.7725V36.8174H8.22754V32.7266Z" fill="#8E83DD"/>
<path d="M16.4092 22.1518L22.12 27.8667L30.1625 19.818L32.7725 22.4995V14.3179H24.5908L27.2703 16.9258L22.1179 22.0782L16.4092 16.3633L8.22754 24.5449L11.1197 27.4371L16.4092 22.1518Z" fill="#8E83DD"/>
<path d="M34.8179 4.0918H28.0721C27.8713 3.78937 27.6527 3.49909 27.4176 3.2225L27.3971 3.19795C25.8943 1.4476 23.7799 0.337005 21.4859 0.0930206C20.8345 -0.0310069 20.1655 -0.0310069 19.5141 0.0930206C17.2201 0.337005 15.1057 1.4476 13.6029 3.19795L13.5824 3.2225C13.3473 3.49843 13.1288 3.78802 12.9279 4.08975V4.0918H6.18213C4.5552 4.09342 2.99537 4.74044 1.84495 5.89085C0.694539 7.04127 0.0475229 8.6011 0.0458984 10.228V38.8638C0.0475229 40.4907 0.694539 42.0505 1.84495 43.2009C2.99537 44.3514 4.5552 44.9984 6.18213 45H34.8179C36.4448 44.9984 38.0046 44.3514 39.155 43.2009C40.3055 42.0505 40.9525 40.4907 40.9541 38.8638V10.228C40.9525 8.6011 40.3055 7.04127 39.155 5.89085C38.0046 4.74044 36.4448 4.09342 34.8179 4.0918ZM36.8633 38.8638C36.8633 39.4062 36.6478 39.9265 36.2642 40.3101C35.8806 40.6937 35.3603 40.9092 34.8179 40.9092H6.18213C5.63982 40.9086 5.11988 40.693 4.7364 40.3095C4.35293 39.926 4.13726 39.4061 4.13672 38.8638V10.228C4.13726 9.68572 4.35293 9.16577 4.7364 8.7823C5.11988 8.39883 5.63982 8.18316 6.18213 8.18262H15.4887C15.7235 7.02667 16.3506 5.98741 17.2639 5.24093C18.1772 4.49446 19.3205 4.08667 20.5 4.08667C21.6795 4.08667 22.8228 4.49446 23.7361 5.24093C24.6494 5.98741 25.2765 7.02667 25.5113 8.18262H34.8179C35.3602 8.18316 35.8801 8.39883 36.2636 8.7823C36.6471 9.16577 36.8627 9.68572 36.8633 10.228V38.8638Z" fill="#8E83DD"/>
</svg>
