<svg width="209" height="299" viewBox="0 0 209 299" fill="none" xmlns="http://www.w3.org/2000/svg">
<path d="M178.858 90.8633C179.538 90.4287 193.895 84.0153 193.895 84.0153L197.671 92.1753L188.569 98.7116C188.569 98.7116 190.988 97.0641 192.32 98.7963C193.653 100.527 191.739 101.275 191.739 101.275L184.253 105.191C183.468 105.602 182.51 105.482 181.852 104.891L176.583 100.163L178.858 90.8633Z" fill="#F8A58D"/>
<path d="M184.344 91.9998C183.503 94.6269 182.662 97.2529 181.821 99.88C181.721 100.191 181.635 100.573 181.86 100.81C182.075 101.036 182.448 100.989 182.739 100.876C183.489 100.587 184.091 100.004 184.578 99.365C185.067 98.726 185.46 98.021 185.933 97.3706C186.206 96.9939 186.521 96.6253 186.943 96.4313C187.396 96.2207 187.916 96.2372 188.414 96.2093C189.832 96.1299 191.235 95.6529 192.362 94.7889C193.488 93.9249 194.323 92.6676 194.607 91.2762" fill="#F8A58D"/>
<path d="M194.607 91.2762C194.637 91.2803 194.625 91.6612 194.4 92.3064C194.175 92.9453 193.7 93.8517 192.786 94.6847C191.881 95.5167 190.513 96.2186 188.889 96.4158C188.068 96.5304 187.22 96.3828 186.673 96.9226C186.385 97.1735 186.145 97.5244 185.896 97.9002C185.647 98.2687 185.393 98.6424 185.137 99.0202C184.662 99.781 184.011 100.525 183.19 100.959C182.983 101.062 182.774 101.162 182.518 101.208C182.279 101.251 181.952 101.248 181.705 101.017C181.459 100.786 181.443 100.449 181.478 100.226C181.512 99.9884 181.59 99.7892 181.649 99.6065C182.139 98.1428 182.589 96.8029 182.983 95.6251C183.37 94.4948 183.694 93.5833 183.928 92.9557C184.162 92.3291 184.309 91.9884 184.344 91.9998C184.38 92.0111 184.301 92.3734 184.127 93.0196C183.954 93.6658 183.687 94.5959 183.346 95.7417C182.983 96.9288 182.57 98.2811 182.12 99.7562C181.99 100.125 181.901 100.529 182.056 100.642C182.187 100.784 182.606 100.688 182.944 100.492C183.646 100.11 184.221 99.4765 184.707 98.6971C184.963 98.3214 185.216 97.9497 185.465 97.5843C185.708 97.2241 185.964 96.8401 186.327 96.5242C186.682 96.197 187.192 96.0277 187.623 95.9977C188.064 95.9585 188.452 95.9688 188.832 95.9234C190.358 95.7644 191.654 95.143 192.536 94.3988C193.428 93.6504 193.932 92.8194 194.207 92.2279C194.482 91.6302 194.563 91.2669 194.607 91.2762Z" fill="#F68260"/>
<path d="M183.879 100.362C185.54 100.055 187.066 99.2689 188.6 98.5638C189.171 98.3016 189.758 98.0456 190.383 97.9868C191.007 97.928 191.685 98.0962 192.102 98.5649C192.518 99.0345 192.824 100.431 192.367 100.862L184.042 105.301" fill="#F8A58D"/>
<path d="M184.041 105.301C184.008 105.241 184.892 104.697 186.366 103.856C187.841 103.015 189.908 101.876 192.241 100.625L192.184 100.667C192.284 100.574 192.345 100.285 192.321 100.007C192.302 99.6901 192.222 99.3597 192.098 99.0759C191.981 98.7858 191.801 98.601 191.54 98.4545C191.024 98.1726 190.396 98.1871 189.84 98.3419C188.717 98.6908 187.704 99.2565 186.83 99.5868C185.081 100.324 183.883 100.433 183.879 100.362C183.865 100.285 184.999 100.05 186.678 99.2379C187.539 98.8632 188.467 98.2841 189.705 97.865C190.326 97.6802 191.1 97.6255 191.79 97.991C192.128 98.1571 192.446 98.4978 192.587 98.8601C192.741 99.2142 192.833 99.5817 192.858 99.977C192.868 100.317 192.869 100.714 192.55 101.056L192.531 101.077L192.492 101.097C190.153 102.338 188.058 103.421 186.537 104.176C185.018 104.933 184.074 105.364 184.041 105.301Z" fill="#F68260"/>
<path d="M175.858 43.4876C173.946 47.4536 172.659 51.8159 172.88 56.2123C173.102 60.6077 174.977 65.0391 178.462 67.7292C179.131 68.2453 179.93 68.714 180.769 68.6118C181.61 68.5117 182.358 67.5672 181.969 66.8167C182.697 68.0967 183.689 69.227 184.863 70.1158C185.254 70.4121 185.711 70.6928 186.199 70.6423C186.898 70.57 187.36 69.8123 187.359 69.1104C187.358 68.4064 187.019 67.755 186.687 67.1357C187.545 67.0882 188.28 67.6879 189.041 68.0864C189.802 68.4838 190.915 68.6046 191.368 67.8737C191.771 67.2224 191.351 66.3883 190.939 65.7421C189.057 62.7878 187.155 59.6683 186.841 56.1793C186.617 53.6946 187.22 51.1532 186.706 48.7119C186.081 45.7379 183.696 43.2048 180.765 42.4017C179.076 41.9402 177.037 42.1281 175.916 43.4711" fill="#17282F"/>
<path d="M157.314 63.0076C155.629 60.7067 152.411 59.95 151.067 57.4365C148.7 53.0112 149.01 48.9172 149.179 43.9015C149.295 40.4671 148.96 35.5918 151.067 32.8779C152.549 30.9672 153.603 29.8008 154.931 27.7786C156.388 25.5582 157.903 22.9207 156.487 20.6725" fill="#17282F"/>
<path d="M157.997 63.0654C157.023 62.0476 155.598 61.4768 154.19 61.5449C153.477 61.5779 152.774 61.7761 152.142 62.1075L156.487 20.1275C154.585 19.8725 150.118 22.4336 148.855 23.8777C147.591 25.3229 146.841 27.1345 146.112 28.9089C143.121 36.1915 141.472 43.5103 144.782 50.1353L144.599 53.2383C144.32 57.9526 146.224 62.4646 149.576 65.7906L149.628 65.8422C149.779 65.9939 149.944 66.155 150.111 66.3253C151.182 67.4019 151.681 68.9297 151.445 70.4285L151.435 70.4915C151.363 70.9271 151.268 71.3668 151.324 71.8045C151.38 72.2432 151.622 72.6892 152.034 72.8461C152.703 73.1011 153.403 72.4951 153.702 71.8448C154.001 71.1955 154.105 70.442 154.562 69.8928C155.082 70.5978 155.216 71.5155 155.65 72.2763C156.086 73.036 157.106 73.6306 157.82 73.1227C158.121 72.909 158.283 72.556 158.424 72.2154C159.046 70.7207 159.542 69.1454 159.569 67.5279C159.598 65.9103 159.115 64.235 157.997 63.0654Z" fill="#17282F"/>
<path d="M180.704 38.2705L179.354 74.7207C179.124 80.9194 173.754 85.6648 167.575 85.129C161.808 84.6294 157.784 79.7643 158.005 73.9796C158.109 71.2358 158.051 67.9883 158.043 67.7055C158.043 67.7055 148.911 65.6544 148.582 56.4456C148.423 51.9955 148.53 44.5178 149.004 36.205C149.513 27.278 156.804 20.2442 165.743 20.0346L166.631 20.014C176.228 20.3484 181.305 28.687 180.704 38.2705Z" fill="#F9B1A2"/>
<path d="M158.005 67.751C158.005 67.751 163.837 68.0896 169.934 64.0565C169.934 64.0565 167.251 70.7538 158.039 70.1396L158.005 67.751Z" fill="#EC8975"/>
<path d="M153.189 43.0591C153.181 43.7538 153.763 44.335 154.489 44.3567C155.213 44.3784 155.809 43.8333 155.817 43.1386C155.826 42.4439 155.243 41.8627 154.519 41.84C153.793 41.8184 153.198 42.3644 153.189 43.0591Z" fill="#17282F"/>
<path d="M151.612 39.6548C151.743 39.7951 152.791 39.7198 154.136 40.1626C155.481 40.5952 156.366 41.3012 156.536 41.2579C156.618 41.2413 156.504 41.0266 156.12 40.7128C155.742 40.4031 155.065 39.9995 154.228 39.726C153.389 39.4535 152.639 39.3926 152.189 39.4339C151.729 39.4731 151.546 39.5897 151.612 39.6548Z" fill="#17282F"/>
<path d="M166.284 43.0591C166.275 43.7538 166.858 44.335 167.583 44.3567C168.308 44.3784 168.902 43.8343 168.912 43.1386C168.919 42.4439 168.338 41.8627 167.613 41.84C166.888 41.8184 166.292 42.3644 166.284 43.0591Z" fill="#17282F"/>
<path d="M165.201 41.7514C165.409 41.7813 166.312 41.066 167.806 40.5808C169.296 40.0843 170.541 40.0915 170.669 39.9512C170.732 39.8872 170.496 39.788 169.949 39.7798C169.412 39.7674 168.545 39.8696 167.615 40.1751C166.684 40.4828 165.967 40.9019 165.584 41.2157C165.194 41.5336 165.101 41.7411 165.201 41.7514Z" fill="#17282F"/>
<path d="M160.118 51.2359C160.123 51.1553 159.239 51.0242 157.81 50.8756C157.447 50.8467 157.104 50.7827 157.036 50.537C156.945 50.2779 157.087 49.8846 157.252 49.4604C157.572 48.5778 157.907 47.6529 158.257 46.6826C159.65 42.729 160.648 39.4815 160.489 39.4268C160.329 39.3721 159.071 42.5329 157.679 46.4864C157.344 47.4609 157.024 48.3899 156.72 49.2787C156.593 49.6926 156.368 50.1644 156.565 50.7022C156.669 50.9706 156.938 51.1595 157.172 51.2162C157.405 51.2823 157.608 51.2813 157.788 51.2875C159.224 51.3319 160.115 51.3164 160.118 51.2359Z" fill="#17282F"/>
<path d="M164.307 52.1174C164.076 52.1102 164.11 53.6462 162.82 54.7672C161.533 55.8924 159.891 55.7582 159.883 55.9739C159.865 56.0699 160.255 56.263 160.948 56.2661C161.626 56.2733 162.612 56.0328 163.4 55.3463C164.187 54.6588 164.511 53.7587 164.549 53.127C164.593 52.4828 164.412 52.106 164.307 52.1174Z" fill="#17282F"/>
<path d="M165.173 36.0914C165.321 36.4734 166.73 36.2576 168.395 36.4187C170.065 36.5467 171.415 37.0009 171.627 36.6509C171.721 36.4837 171.48 36.1276 170.93 35.7663C170.385 35.407 169.52 35.0736 168.519 34.9859C167.521 34.9012 166.612 35.0798 166.012 35.341C165.408 35.6001 165.109 35.9097 165.173 36.0914Z" fill="#17282F"/>
<path d="M151.513 36.5704C151.77 36.8863 152.737 36.5301 153.909 36.4868C155.079 36.4021 156.079 36.6519 156.3 36.3103C156.396 36.1451 156.233 35.8261 155.791 35.5319C155.357 35.2388 154.636 35.0076 153.831 35.0509C153.026 35.0953 152.334 35.4029 151.934 35.7425C151.528 36.0821 151.399 36.4166 151.513 36.5704Z" fill="#17282F"/>
<path d="M194.25 51.1789C193.962 49.42 193.789 47.6434 193.602 45.87C193.277 42.7856 186.747 31.6651 186.747 31.6651C184.668 27.2903 182.207 23.0075 178.697 19.7166C175.189 16.4248 170.49 14.2054 165.733 14.5832C160.978 14.961 156.345 18.3396 155.271 23.0777L156.072 21.8792C155.894 23.5567 157.68 24.8305 159.33 24.9626C160.981 25.0937 162.608 24.5063 164.262 24.4547C167.491 24.3556 170.532 26.3685 172.381 29.0669C174.231 31.7652 175.042 35.0643 175.448 38.3304C175.853 41.5954 175.891 44.9038 176.373 48.1585C176.89 51.6455 178.861 52.846 181.479 55.1511C183.912 57.293 186.359 59.9139 188.298 62.4812C189.006 63.4154 190.878 64.2608 191.917 64.0306C192.955 63.7994 193.244 62.253 193.391 61.1805C193.531 59.981 192.783 58.8218 192.734 57.2022C193.742 56.7511 194.334 55.6321 194.487 54.5214C194.641 53.4107 194.431 52.2855 194.25 51.1789Z" fill="#17282F"/>
<path d="M179.3 47.1511C179.455 47.0789 185.586 45.131 185.531 51.433C185.477 57.7349 179.162 56.3816 179.153 56.201C179.143 56.0203 179.3 47.1511 179.3 47.1511Z" fill="#F9B1A2"/>
<path d="M181.097 53.8299C181.125 53.8092 181.207 53.9073 181.392 53.994C181.572 54.0787 181.883 54.1375 182.212 54.0178C182.88 53.7793 183.45 52.7264 183.49 51.5909C183.511 51.018 183.395 50.4709 183.196 50.0167C183.007 49.5543 182.712 49.2291 182.377 49.1672C182.044 49.0866 181.806 49.2859 181.727 49.4624C181.641 49.6379 181.68 49.7638 181.647 49.7741C181.628 49.7896 181.512 49.6678 181.565 49.4077C181.592 49.2828 181.667 49.1352 181.817 49.0144C181.969 48.8936 182.192 48.8327 182.425 48.8596C182.91 48.8977 183.345 49.3488 183.563 49.8464C183.809 50.347 183.953 50.9623 183.929 51.6064C183.878 52.8761 183.218 54.059 182.304 54.315C181.86 54.4265 181.492 54.2892 181.302 54.1396C181.108 53.9816 181.076 53.8402 181.097 53.8299Z" fill="#EC8975"/>
<path d="M190.769 59.2058L190.896 59.0902C190.97 59.0066 191.094 58.8899 191.223 58.7114C191.499 58.3686 191.868 57.8205 192.18 57.0381C192.819 55.5124 193.197 52.8915 192.014 50.0734C191.444 48.6747 190.53 47.2708 189.332 45.9702C188.142 44.652 186.612 43.535 185.139 42.2581C184.406 41.6161 183.683 40.9244 183.079 40.1172C182.465 39.3193 182.004 38.3903 181.658 37.3993C180.962 35.406 180.778 33.1897 180.436 30.9404C180.122 28.6818 179.502 26.4852 178.491 24.5621C177.492 22.6359 176.092 20.9915 174.455 19.8364C172.826 18.6751 170.972 17.9856 169.19 17.8637C167.409 17.7234 165.754 18.0526 164.333 18.5203C162.904 18.992 161.691 19.6155 160.667 20.2142C159.636 20.8098 158.826 21.4746 158.291 22.1301C157.749 22.7835 157.522 23.4307 157.453 23.8663C157.392 24.3081 157.446 24.5394 157.446 24.5394C157.472 24.5404 157.455 24.3061 157.542 23.8828C157.639 23.4658 157.882 22.8599 158.427 22.2447C158.965 21.6274 159.768 21.0008 160.794 20.4351C161.819 19.8632 163.026 19.2697 164.432 18.8268C165.831 18.3871 167.444 18.0877 169.158 18.2395C170.871 18.3726 172.643 19.0488 174.21 20.177C175.783 21.3022 177.128 22.8929 178.096 24.7685C179.072 26.6452 179.674 28.7747 179.986 31.0096C180.326 33.2372 180.511 35.4824 181.237 37.5459C181.597 38.5709 182.086 39.5474 182.733 40.3804C183.368 41.2207 184.116 41.9278 184.863 42.575C186.368 43.8623 187.884 44.9513 189.055 46.2282C190.239 47.4886 191.145 48.8471 191.716 50.1973C192.902 52.9152 192.589 55.4618 192.015 56.974C191.435 58.5255 190.71 59.1686 190.769 59.2058Z" fill="#33535F"/>
<path d="M143.358 95.2225C143.358 95.2225 108.136 68.6655 105.573 67.0882C101.041 64.2991 96.39 27.8344 96.39 27.8344L107.565 23.853L116.53 54.4813L150.13 75.2813L143.358 95.2225Z" fill="#F9B1A2"/>
<path d="M105.06 28.0945C105.06 28.0945 107.89 26.3334 108.542 24.1172C109.194 21.9009 109.921 8.58578 109.921 8.58578C109.921 8.58578 108.187 8.13468 107.156 10.6482C106.39 12.5135 105.43 16.7375 105.43 16.7375C105.43 16.7375 103.641 9.18449 103.027 6.59661C102.489 4.32357 101.538 0.910919 100.316 0.870661C99.0927 0.831434 100.046 5.25364 100.071 7.19119C100.097 9.12875 100.196 11.8756 100.196 11.8756C100.257 12.0077 97.8706 2.95066 96.574 0.707556C95.6274 -0.930643 93.727 0.519693 94.4218 2.57492C94.4218 2.57492 92.8414 0.83041 92.4305 2.65958C92.0187 4.48771 94.4434 13.2495 93.8127 13.3146C93.182 13.3796 90.8078 6.36745 89.6641 6.05881C89.0158 5.88539 88.575 6.79173 89.0912 8.60231C89.6083 10.4119 93.628 24.0243 94.6262 25.7471C95.6244 27.47 96.6163 27.8509 96.6163 27.8509L105.06 28.0945Z" fill="#F9B1A2"/>
<path d="M97.186 20.0161C97.1964 19.9572 97.8106 19.9882 98.7551 20.2937C99.6955 20.5931 100.961 21.2125 102.105 22.2406L101.695 22.3511L101.748 22.1962C102.251 20.7108 103.029 19.501 103.685 18.7237C104.343 17.9412 104.853 17.5634 104.896 17.6089C105.02 17.708 103.192 19.4855 102.228 22.3603L102.177 22.508L102.05 22.8765L101.766 22.6184C99.5747 20.6282 97.1293 20.1637 97.186 20.0161Z" fill="#EC8975"/>
<path d="M94.3326 2.2456C94.4565 2.21257 95.3184 4.66419 96.2712 7.74032C97.2271 10.8216 97.6276 13.4219 97.4862 13.4456C97.351 13.4694 96.7357 10.9496 95.7861 7.88586C94.8364 4.82108 94.1861 2.28586 94.3326 2.2456Z" fill="#EC8975"/>
<path d="M160.589 78.1139L119.729 55.6003C119.729 55.6003 119.893 54.1107 118.799 53.3293C117.705 52.5468 117.087 53.6379 117.087 53.6379L103.206 60.7977C101.849 61.4986 101.425 63.2349 102.312 64.4787C104.796 67.9667 109.466 74.3079 112.044 76.4499C114.598 78.5722 147.363 100.332 147.363 100.332L160.589 78.1139Z" fill="#F2575D"/>
<path d="M83.3978 22.9693C83.3692 22.9807 83.2567 22.7649 83.0781 22.3634C82.8934 21.9639 82.6733 21.3662 82.4434 20.6147C81.9797 19.1128 81.5615 16.9533 81.5571 14.5419C81.56 12.1316 81.9761 9.97107 82.4381 8.46913C82.6676 7.71661 82.8878 7.11891 83.0716 6.71943C83.2503 6.31787 83.3624 6.10215 83.391 6.1135C83.4612 6.14137 83.1196 7.04665 82.7442 8.55272C82.3659 10.0557 82.0083 12.178 82.0059 14.5419C82.0103 16.9058 82.3696 19.0281 82.7486 20.5301C83.1253 22.0361 83.468 22.9404 83.3978 22.9693Z" fill="#17282F"/>
<path d="M77.923 16.8366C77.8928 16.8417 77.8223 16.6085 77.7202 16.179C77.6133 15.7507 77.5053 15.1199 77.4134 14.3344C77.2262 12.7664 77.1879 10.5604 77.5746 8.16973C77.9674 5.78004 78.7049 3.70005 79.3803 2.27243C79.7166 1.55707 80.0198 0.993458 80.2573 0.620811C80.4899 0.246101 80.6312 0.0468578 80.6581 0.0623417C80.7234 0.0984707 80.2617 0.95423 79.671 2.3994C79.0779 3.84043 78.4033 5.89565 78.0165 8.24198C77.6383 10.5883 77.625 12.7519 77.7295 14.3065C77.8307 15.8642 77.9964 16.8221 77.923 16.8366Z" fill="#17282F"/>
<path d="M114.953 20.906C114.883 20.906 114.856 19.979 114.734 18.4936C114.614 17.0071 114.364 14.9622 113.876 12.7439C113.384 10.5256 112.748 8.56531 112.232 7.1666C111.717 5.76685 111.352 4.91628 111.415 4.88635C111.463 4.86261 111.932 5.66777 112.527 7.04996C113.123 8.4301 113.816 10.4007 114.314 12.6469C114.808 14.8931 115.01 16.9721 115.05 18.475C115.092 19.979 115.007 20.907 114.953 20.906Z" fill="#17282F"/>
<path d="M120.26 22.8114C120.184 22.8072 120.245 21.6346 120.142 19.7517C120.043 17.8699 119.717 15.2759 118.935 12.5104C118.144 9.74604 117.056 7.36874 116.15 5.71609C115.245 4.06137 114.575 3.09726 114.638 3.05287C114.664 3.03532 114.854 3.25931 115.176 3.68357C115.502 4.1037 115.933 4.74369 116.424 5.55918C117.411 7.18706 118.564 9.58192 119.366 12.3876C120.161 15.1943 120.441 17.8369 120.459 19.7404C120.47 20.6921 120.441 21.4643 120.384 21.9928C120.333 22.5224 120.291 22.8145 120.26 22.8114Z" fill="#17282F"/>
<path d="M177.225 120.384L165.719 175.24L189.027 174.977L198.895 126.303L219.57 126.069C221.272 126.051 222.637 124.654 222.617 122.953C222.597 121.251 221.203 119.886 219.501 119.906L177.225 120.384Z" fill="#33535F"/>
<path d="M24.1134 253.569L21.1949 272.589C21.1949 272.589 0.881448 276.01 0 279.473L36.6744 286.456L42.4384 257.008L24.1134 253.569Z" fill="#F2575D"/>
<path d="M36.6744 286.456L0 279.473C0.881448 276.01 21.1949 272.589 21.1949 272.589L24.1134 253.569L42.4384 257.008L36.6744 286.456Z" fill="#CC4341"/>
<path d="M32.8373 273.161C33.5102 273.489 33.8489 274.381 33.5477 275.066C33.2462 275.752 32.343 276.104 31.6638 275.787C30.986 275.47 30.5465 274.412 30.9228 273.765C31.2989 273.116 32.3828 272.761 32.9651 273.232" fill="#17282F"/>
<path d="M36.6747 286.456L37.2337 283.602L1.80243 277.887C1.80243 277.887 0.0342711 278.287 0 279.473L36.6747 286.456Z" fill="#17282F"/>
<path d="M20.6356 272.289C20.6073 272.47 21.4875 272.722 22.2585 273.465C23.05 274.189 23.3565 275.052 23.5343 275.011C23.7061 275.008 23.6432 273.886 22.6932 273.002C21.7516 272.111 20.6278 272.118 20.6356 272.289Z" fill="#17282F"/>
<path d="M16.4857 273.148C16.4116 273.313 17.1293 273.767 17.593 274.639C18.0829 275.498 18.0806 276.347 18.2604 276.373C18.4233 276.433 18.7471 275.408 18.1491 274.333C17.5611 273.253 16.5221 272.978 16.4857 273.148Z" fill="#17282F"/>
<path d="M13.4244 277.336C13.58 277.405 13.9998 276.558 13.7264 275.488C13.4611 274.418 12.6901 273.871 12.5857 274.006C12.4566 274.134 12.9006 274.764 13.1111 275.644C13.3425 276.52 13.2502 277.285 13.4244 277.336Z" fill="#17282F"/>
<path d="M21.782 268.029C21.826 268.207 22.6941 268.116 23.6937 268.377C24.6981 268.619 25.4211 269.108 25.5437 268.973C25.672 268.863 25.0288 268.053 23.8482 267.762C22.6695 267.461 21.7207 267.871 21.782 268.029Z" fill="#17282F"/>
<path d="M36.4938 254.619L33.5744 273.638C33.5744 273.638 13.2619 277.059 12.3796 280.521L49.0547 287.506L54.8188 258.058L36.4938 254.619Z" fill="#F2575D"/>
<path d="M45.2175 274.208C45.8905 274.539 46.2284 275.429 45.9276 276.115C45.6259 276.801 44.7223 277.153 44.0441 276.836C43.3655 276.519 42.9268 275.461 43.3025 274.813C43.6784 274.165 44.7622 273.81 45.345 274.281" fill="#17282F"/>
<path d="M49.0547 287.506L49.6131 284.65L14.1828 278.936C14.1828 278.936 12.4147 279.336 12.3796 280.521L49.0547 287.506Z" fill="#17282F"/>
<path d="M33.0159 273.338C32.9873 273.519 33.8675 273.769 34.6389 274.514C35.4296 275.238 35.7361 276.099 35.9143 276.06C36.0864 276.057 36.0236 274.935 35.0732 274.051C34.1312 273.159 33.0082 273.167 33.0159 273.338Z" fill="#17282F"/>
<path d="M28.8661 274.197C28.7918 274.363 29.5092 274.814 29.9733 275.688C30.4629 276.547 30.4604 277.396 30.6402 277.423C30.8028 277.483 31.1269 276.457 30.5289 275.382C29.9415 274.302 28.9023 274.027 28.8661 274.197Z" fill="#17282F"/>
<path d="M25.8044 278.385C25.9596 278.454 26.3793 277.606 26.1064 276.538C25.8406 275.468 25.07 274.921 24.9656 275.056C24.8366 275.183 25.2798 275.813 25.4911 276.693C25.7221 277.568 25.6293 278.333 25.8044 278.385Z" fill="#17282F"/>
<path d="M34.1615 269.078C34.2058 269.254 35.0745 269.165 36.0732 269.426C37.0781 269.667 37.8007 270.156 37.9236 270.021C38.0518 269.911 37.4091 269.103 36.2276 268.811C35.049 268.51 34.1006 268.92 34.1615 269.078Z" fill="#17282F"/>
<path d="M122.602 155.861C122.602 155.861 55.9168 156.951 49.9349 156.681C37.2821 156.111 32.345 164.652 30.6155 176.767C30.0853 180.478 20.5446 261.827 20.5446 261.827L43.6345 266.598L59.306 192.648C59.306 192.648 120.938 194.856 126.765 195.847C133.858 197.055 143.64 200.83 148.976 196.689C154.31 192.545 157.551 171.293 157.551 171.293L122.602 155.861Z" fill="#17282F"/>
<path d="M127.77 155.838C127.77 155.838 68.0125 156.815 62.0306 156.545C49.3782 155.974 44.4411 164.517 42.7117 176.631C42.1818 180.343 32.6406 264.151 32.6406 264.151L55.1576 269.165L71.4016 192.512C71.4016 192.512 133.034 194.72 138.86 195.711C145.954 196.918 155.736 200.694 161.071 196.551C166.406 192.408 169.648 171.157 169.648 171.157L127.77 155.838Z" fill="#17282F"/>
<path d="M66.655 156.587C66.6542 156.595 66.5461 156.599 66.3356 156.598C66.1033 156.595 65.7957 156.59 65.4046 156.584C64.5864 156.603 63.3776 156.608 61.8312 156.773C60.2864 156.93 58.3997 157.201 56.2622 157.738C55.1941 158.008 54.0642 158.348 52.9082 158.815C51.7497 159.266 50.5585 159.858 49.4674 160.686C48.9191 161.094 48.4166 161.589 48.0021 162.158C47.586 162.739 47.225 163.392 46.8848 164.061C46.2138 165.409 45.6614 166.885 45.24 168.457C44.3747 171.6 43.963 175.08 43.4533 178.723C42.448 186.016 41.4308 194.045 40.407 202.479C38.3723 219.354 36.6134 234.642 35.1658 245.686C34.4533 251.21 33.8327 255.674 33.3863 258.755C33.1565 260.276 32.9766 261.465 32.8508 262.302C32.7871 262.688 32.738 262.993 32.7001 263.223C32.6638 263.43 32.6416 263.535 32.6335 263.534C32.6263 263.533 32.6335 263.425 32.6549 263.217C32.6815 262.986 32.7162 262.678 32.7613 262.29C32.8681 261.45 33.0198 260.257 33.2133 258.733C33.6033 255.616 34.1618 251.152 34.8512 245.647C36.1618 234.564 37.9674 219.295 39.9617 202.425C40.9855 193.989 42.0158 185.959 43.0444 178.667C43.565 175.027 43.9904 171.535 44.8815 168.358C45.3162 166.77 45.8848 165.273 46.5763 163.905C46.928 163.223 47.2944 162.568 47.7312 161.968C48.1755 161.363 48.7061 160.853 49.2755 160.434C50.4094 159.586 51.6255 158.997 52.8037 158.549C53.9787 158.088 55.1227 157.756 56.2014 157.495C58.361 156.976 60.2615 156.73 61.8154 156.6C64.9316 156.346 66.655 156.587 66.655 156.587Z" fill="#33535F"/>
<path d="M151.349 79.2245L179.461 71.8274C179.461 71.8274 190.457 78.6145 191.53 79.9255C192.604 81.2375 196.499 86.2336 196.385 95.5973C196.314 101.445 191.264 122.554 191.264 122.554L172.529 155.447L166.756 171.66L138.76 171.732L127.77 155.838C127.77 155.838 126.384 152.544 130.033 147.473C133.683 142.402 139.403 133.823 139.403 133.823C139.403 133.823 141.09 123.542 142.9 119.749C144.71 115.957 144.295 114.372 144.295 114.372C144.295 114.372 142.515 103.89 144.312 98.9717C146.11 94.055 151.349 79.2245 151.349 79.2245Z" fill="#F2575D"/>
<path d="M181.346 76.2165C188.118 75.4392 192.358 79.6726 196.387 85.1704C204.333 96.0102 211.824 116.391 212.605 118.652C213.712 121.85 214.865 122.555 215.245 124.136C215.964 127.136 215.69 131.699 215.343 134.944C215.108 137.136 213.209 138.764 211.007 138.666L194.729 138.856C192.812 138.879 191.261 137.3 191.317 135.383L191.567 126.915C191.567 126.915 182.276 119.294 180.075 113.968C177.876 108.644 169.913 103.713 169.913 103.713C169.913 103.713 163.613 93.9817 168.028 85.9497C169.416 83.4248 178.883 76.4994 181.346 76.2165Z" fill="#F2575D"/>
<path d="M173.987 106.315C174.012 106.295 174.263 106.564 174.696 107.065C175.182 107.646 175.784 108.364 176.499 109.217C178.006 111.046 180.062 113.592 182.312 116.421C184.582 119.235 186.507 121.895 188.207 123.52C189.885 125.176 191.234 125.807 191.19 125.88C191.181 125.899 190.831 125.776 190.252 125.441C189.672 125.11 188.87 124.558 187.989 123.75C186.197 122.149 184.228 119.509 181.961 116.699C179.711 113.87 177.693 111.294 176.25 109.414C175.581 108.526 175.015 107.778 174.559 107.174C174.169 106.638 173.964 106.333 173.987 106.315Z" fill="#17282F"/>
<path d="M174.135 126.258H189.644V108.061H174.135V126.258Z" fill="#CC4341"/>
<path d="M189.644 125.253C189.244 124.896 188.799 124.491 188.324 124.049C188.751 124.417 189.152 124.723 189.513 124.972C189.59 125.045 189.669 125.116 189.748 125.188C189.714 125.21 189.679 125.231 189.644 125.253ZM186.998 122.784C184.587 120.429 181.85 117.439 180.484 114.837C180.962 115.441 181.457 116.064 181.962 116.699C183.818 119.001 185.474 121.188 186.998 122.784Z" fill="#CC4341"/>
<path d="M189.512 124.972C189.152 124.723 188.751 124.417 188.324 124.049C188.214 123.953 188.101 123.854 187.989 123.75C187.665 123.461 187.334 123.137 186.998 122.784C185.474 121.188 183.817 119.001 181.961 116.699C181.457 116.064 180.962 115.441 180.484 114.836C178.834 112.748 177.37 110.871 176.25 109.414C175.929 108.988 175.632 108.593 175.358 108.231C175.507 108.303 175.634 108.39 175.71 108.48C180.585 114.232 183.869 119.774 189.512 124.972Z" fill="#0F191D"/>
<path d="M203.466 121.772C203.456 121.852 202.677 121.741 201.429 121.813C200.184 121.881 198.468 122.206 196.745 123.013C195.026 123.83 193.684 124.945 192.839 125.862C191.99 126.779 191.579 127.45 191.511 127.407C191.472 127.389 191.789 126.652 192.601 125.654C193.406 124.656 194.77 123.453 196.554 122.607C198.341 121.769 200.137 121.482 201.419 121.497C202.706 121.505 203.477 121.729 203.466 121.772Z" fill="#17282F"/>
<path d="M195.352 113.796C195.481 113.879 193.316 116.208 192.276 119.866C191.185 123.509 191.757 126.636 191.604 126.637C191.555 126.647 191.345 125.891 191.269 124.628C191.191 123.369 191.306 121.6 191.845 119.74C192.392 117.881 193.246 116.328 193.989 115.31C194.733 114.285 195.317 113.762 195.352 113.796Z" fill="#17282F"/>
<path d="M139.404 133.823C139.388 133.82 139.408 133.63 139.457 133.27C139.508 132.908 139.586 132.378 139.705 131.697C139.94 130.335 140.299 128.366 140.883 125.961C141.46 123.555 142.322 120.727 143.481 117.669C144.114 116.175 144.307 114.49 144.225 112.73C144.16 110.971 143.873 109.15 143.778 107.251C143.443 99.6622 144.917 92.8504 146.529 88.1835C147.332 85.8413 148.129 83.9997 148.738 82.7569C149.027 82.1293 149.296 81.6627 149.462 81.3386C149.635 81.0186 149.732 80.8544 149.746 80.8617C149.759 80.8678 149.689 81.0464 149.542 81.3799C149.402 81.7153 149.16 82.1933 148.897 82.8302C148.339 84.0906 147.59 85.9414 146.83 88.2836C145.305 92.9484 143.894 99.7128 144.226 107.23C144.318 109.094 144.603 110.919 144.664 112.713C144.746 114.496 144.528 116.293 143.867 117.815C142.69 120.856 141.805 123.652 141.19 126.039C140.57 128.424 140.164 130.379 139.876 131.729C139.741 132.367 139.632 132.884 139.546 133.285C139.468 133.64 139.418 133.825 139.404 133.823Z" fill="#17282F"/>
<path d="M192.153 136.906C192.137 136.881 192.39 136.69 192.869 136.378C193.348 136.066 194.059 135.641 194.971 135.171C196.781 134.241 199.465 133.121 202.63 132.905C205.8 132.694 208.646 133.636 210.364 134.774C211.232 135.336 211.855 135.904 212.234 136.337C212.617 136.766 212.79 137.034 212.77 137.05C212.703 137.118 211.937 136.071 210.198 135.044C208.488 134.009 205.729 133.149 202.659 133.352C199.586 133.561 196.938 134.607 195.11 135.456C193.273 136.316 192.191 136.97 192.153 136.906Z" fill="#17282F"/>
<path d="M189.223 167.6L188.065 211.163L90.3688 211.461C85.1307 211.478 80.8602 207.268 80.8009 202.029C80.7421 196.84 84.8428 192.556 90.0303 192.388L98.4804 192.114L98.022 173.56C97.9549 170.849 100.119 168.607 102.83 168.576L189.223 167.6Z" fill="#33535F"/>
<path d="M147.645 256.88L153.356 256.816L152.705 199.305L146.995 199.369L147.645 256.88Z" fill="#33535F"/>
<path d="M72.201 257.493L153.352 256.576L153.299 251.78L72.1461 252.696L72.201 257.493Z" fill="#33535F"/>
<path d="M145.732 181.833C145.525 181.833 145.319 181.834 145.112 181.836C115.637 182.169 91.9288 206.419 92.2623 235.893C92.4233 250.171 98.1358 263.531 108.345 273.513C118.555 283.496 132.018 288.919 146.319 288.742C160.597 288.582 173.957 282.87 183.939 272.66C193.921 262.451 199.329 248.964 199.168 234.686C199.007 220.408 193.296 207.047 183.086 197.065C173.024 187.229 159.779 181.833 145.732 181.833ZM145.698 289.607C131.424 289.607 117.968 284.125 107.743 274.129C97.3688 263.987 91.5645 250.412 91.4014 235.903C91.0628 205.954 115.153 181.314 145.102 180.976C159.638 180.802 173.312 186.307 183.688 196.45C194.062 206.592 199.865 220.168 200.029 234.676C200.368 264.625 176.278 289.265 146.329 289.603C146.119 289.607 145.908 289.607 145.698 289.607Z" fill="#DADBD8"/>
<path d="M118.526 236.067C133.353 235.889 145.37 235.737 145.37 235.726C145.37 235.714 133.353 235.85 118.526 236.028C103.709 236.207 91.6901 236.358 91.6901 236.37C91.6901 236.38 103.709 236.245 118.526 236.067Z" fill="#DADBD8"/>
<path d="M118.94 240.503C133.542 237.924 145.375 235.826 145.373 235.815C145.371 235.805 133.536 237.887 118.934 240.466C104.341 243.043 92.5056 245.141 92.5077 245.152C92.5098 245.162 104.348 243.079 118.94 240.503Z" fill="#DADBD8"/>
<path d="M120.073 244.81C134.053 239.867 145.38 235.854 145.377 235.843C145.374 235.834 134.041 239.831 120.06 244.775C106.089 249.713 94.7603 253.726 94.7634 253.736C94.7676 253.746 106.102 249.748 120.073 244.81Z" fill="#DADBD8"/>
<path d="M121.897 248.869C134.878 241.7 145.393 235.883 145.388 235.874C145.383 235.867 134.86 241.669 121.88 248.838C108.908 256.001 98.3896 261.819 98.3947 261.827C98.3999 261.837 108.926 256.033 121.897 248.869Z" fill="#DADBD8"/>
<path d="M124.36 252.575C135.999 243.388 145.427 235.936 145.421 235.928C145.414 235.921 135.977 243.359 124.338 252.547C112.706 261.728 103.276 269.182 103.284 269.19C103.289 269.198 112.729 261.757 124.36 252.575Z" fill="#DADBD8"/>
<path d="M127.392 255.832C137.387 244.879 145.482 235.998 145.475 235.991C145.468 235.985 137.36 244.855 127.365 255.807C117.376 266.753 109.279 275.637 109.286 275.643C109.293 275.651 117.402 266.777 127.392 255.832Z" fill="#DADBD8"/>
<path d="M130.91 258.553C138.996 246.122 145.542 236.045 145.534 236.04C145.525 236.035 138.966 246.104 130.88 258.534C122.8 270.956 116.252 281.036 116.26 281.04C116.269 281.045 122.831 270.974 130.91 258.553Z" fill="#DADBD8"/>
<path d="M134.824 260.665C140.772 247.081 145.585 236.07 145.575 236.066C145.566 236.062 140.739 247.067 134.791 260.65C128.849 274.226 124.035 285.239 124.043 285.243C124.053 285.247 128.881 274.239 134.824 260.665Z" fill="#DADBD8"/>
<path d="M139.033 262.108C142.669 247.732 145.607 236.081 145.598 236.078C145.589 236.075 142.634 247.723 138.998 262.1C135.365 276.466 132.425 288.12 132.434 288.122C132.445 288.125 135.399 276.474 139.033 262.108Z" fill="#DADBD8"/>
<path d="M143.422 262.841C144.658 248.063 145.651 236.088 145.641 236.087C145.631 236.087 144.622 248.06 143.386 262.838C142.151 277.604 141.157 289.583 141.168 289.584C141.177 289.585 142.187 277.607 143.422 262.841Z" fill="#DADBD8"/>
<path d="M147.875 262.851C146.715 248.068 145.766 236.089 145.757 236.089C145.746 236.09 146.677 248.071 147.837 262.854C148.996 277.628 149.945 289.61 149.955 289.608C149.965 289.607 149.034 277.625 147.875 262.851Z" fill="#DADBD8"/>
<path d="M152.272 262.142C148.713 247.746 145.821 236.083 145.81 236.086C145.8 236.088 148.677 247.754 152.235 262.15C155.792 276.535 158.685 288.202 158.695 288.2C158.705 288.197 155.829 276.526 152.272 262.142Z" fill="#DADBD8"/>
<path d="M156.491 260.721C150.615 247.105 145.844 236.077 145.835 236.081C145.825 236.085 150.581 247.12 156.457 260.734C162.33 274.339 167.101 285.372 167.11 285.368C167.12 285.364 162.364 274.326 156.491 260.721Z" fill="#DADBD8"/>
<path d="M160.419 258.626C152.395 246.156 145.884 236.056 145.876 236.061C145.867 236.066 152.364 246.176 160.388 258.646C168.408 271.107 174.919 281.209 174.928 281.205C174.936 281.199 168.438 271.088 160.419 258.626Z" fill="#DADBD8"/>
<path d="M163.952 255.921C154.007 244.921 145.943 236.012 145.934 236.019C145.928 236.026 153.98 244.946 163.925 255.946C173.862 266.937 181.928 275.849 181.936 275.841C181.944 275.834 173.889 266.913 163.952 255.921Z" fill="#DADBD8"/>
<path d="M166.998 252.679C155.403 243.437 146.001 235.953 145.995 235.96C145.988 235.967 155.38 243.464 166.976 252.707C178.563 261.944 187.967 269.429 187.973 269.423C187.98 269.414 178.585 261.916 166.998 252.679Z" fill="#DADBD8"/>
<path d="M169.477 248.987C156.533 241.753 146.039 235.898 146.035 235.906C146.029 235.916 156.515 241.784 169.46 249.018C182.396 256.247 192.892 262.104 192.897 262.095C192.901 262.086 182.413 256.216 169.477 248.987Z" fill="#DADBD8"/>
<path d="M171.322 244.939C157.368 239.922 146.056 235.865 146.053 235.874C146.049 235.883 157.354 239.957 171.309 244.973C185.254 249.985 196.568 254.044 196.571 254.035C196.574 254.025 185.266 249.951 171.322 244.939Z" fill="#DADBD8"/>
<path d="M172.476 240.642C157.887 237.985 146.064 235.84 146.061 235.85C146.059 235.861 157.882 238.021 172.47 240.677C187.048 243.331 198.875 245.476 198.877 245.467C198.879 245.457 187.055 243.296 172.476 240.642Z" fill="#DADBD8"/>
<path d="M172.913 236.211C158.086 235.961 146.071 235.768 146.071 235.778C146.071 235.787 158.085 235.998 172.913 236.248C187.729 236.497 199.746 236.691 199.746 236.681C199.746 236.67 187.729 236.46 172.913 236.211Z" fill="#DADBD8"/>
<path d="M172.628 231.767C157.956 233.914 146.067 235.663 146.069 235.673C146.07 235.683 157.961 233.951 172.634 231.804C187.296 229.658 199.188 227.909 199.186 227.899C199.185 227.889 187.29 229.621 172.628 231.767Z" fill="#DADBD8"/>
<path d="M171.624 227.428C157.502 231.955 146.061 235.629 146.064 235.64C146.068 235.649 157.514 231.99 171.635 227.463C185.746 222.941 197.19 219.265 197.186 219.256C197.183 219.246 185.735 222.906 171.624 227.428Z" fill="#DADBD8"/>
<path d="M169.92 223.316C156.733 230.099 146.051 235.603 146.055 235.612C146.06 235.62 156.751 230.131 169.937 223.349C183.115 216.571 193.8 211.066 193.794 211.057C193.79 211.048 183.098 216.539 169.92 223.316Z" fill="#DADBD8"/>
<path d="M167.567 219.539C155.664 228.381 146.021 235.553 146.027 235.562C146.034 235.57 155.685 228.41 167.588 219.569C179.484 210.731 189.128 203.558 189.122 203.55C189.116 203.542 179.462 210.703 167.567 219.539Z" fill="#DADBD8"/>
<path d="M164.632 216.195C154.319 226.851 145.969 235.492 145.976 235.498C145.983 235.506 154.346 226.876 164.658 216.22C174.963 205.571 183.316 196.929 183.308 196.922C183.301 196.915 174.937 205.547 164.632 216.195Z" fill="#DADBD8"/>
<path d="M161.195 213.372C152.748 225.559 145.909 235.442 145.917 235.446C145.925 235.452 152.777 225.581 161.224 213.393C169.665 201.213 176.506 191.33 176.498 191.324C176.49 191.319 169.636 201.193 161.195 213.372Z" fill="#DADBD8"/>
<path d="M157.344 211.145C150.998 224.548 145.862 235.412 145.871 235.416C145.88 235.42 151.03 224.563 157.376 211.161C163.718 197.768 168.855 186.902 168.847 186.898C168.837 186.892 163.686 197.753 157.344 211.145Z" fill="#DADBD8"/>
<path d="M153.18 209.579C149.12 223.84 145.836 235.4 145.846 235.402C145.856 235.406 149.154 223.85 153.215 209.589C157.273 195.337 160.556 183.775 160.547 183.772C160.537 183.77 157.239 195.327 153.18 209.579Z" fill="#DADBD8"/>
<path d="M148.814 208.718C147.146 223.451 145.801 235.393 145.812 235.394C145.822 235.395 147.181 223.455 148.851 208.722C150.518 193.996 151.862 182.053 151.852 182.052C151.842 182.05 150.482 193.992 148.814 208.718Z" fill="#DADBD8"/>
<path d="M144.365 208.577C145.093 223.388 145.693 235.39 145.703 235.389C145.715 235.389 145.133 223.386 144.403 208.575C143.674 193.775 143.074 181.769 143.064 181.77C143.054 181.77 143.636 193.777 144.365 208.577Z" fill="#DADBD8"/>
<path d="M139.948 209.158C143.079 223.652 145.626 235.396 145.635 235.394C145.645 235.392 143.116 223.644 139.985 209.15C136.855 194.665 134.309 182.919 134.299 182.921C134.289 182.923 136.819 194.673 139.948 209.158Z" fill="#DADBD8"/>
<path d="M135.688 210.454C141.159 224.235 145.601 235.402 145.611 235.398C145.62 235.394 141.195 224.221 135.722 210.439C130.256 196.667 125.813 185.499 125.803 185.502C125.794 185.506 130.222 196.68 135.688 210.454Z" fill="#DADBD8"/>
<path d="M131.701 212.43C139.355 225.13 145.566 235.418 145.574 235.413C145.584 235.408 139.387 225.112 131.732 212.411C124.082 199.72 117.871 189.43 117.862 189.435C117.853 189.441 124.052 199.74 131.701 212.43Z" fill="#DADBD8"/>
<path d="M128.09 215.031C137.709 226.318 145.509 235.457 145.518 235.451C145.525 235.444 137.735 226.293 128.118 215.008C118.505 203.73 110.704 194.587 110.695 194.593C110.687 194.599 118.479 203.752 128.09 215.031Z" fill="#DADBD8"/>
<path d="M124.95 218.182C136.27 227.76 145.449 235.516 145.456 235.509C145.462 235.5 136.294 227.733 124.973 218.154C113.661 208.583 104.479 200.826 104.473 200.834C104.466 200.841 113.637 208.611 124.95 218.182Z" fill="#DADBD8"/>
<path d="M122.363 221.801C135.09 229.412 145.407 235.573 145.412 235.564C145.416 235.556 135.108 229.38 122.382 221.769C109.664 214.164 99.3446 208.002 99.3394 208.009C99.3343 208.019 109.646 214.196 122.363 221.801Z" fill="#DADBD8"/>
<path d="M120.4 225.792C134.201 231.22 145.386 235.61 145.39 235.601C145.393 235.591 134.213 231.186 120.414 225.759C106.623 220.337 95.4341 215.944 95.431 215.953C95.4279 215.962 106.61 220.37 120.4 225.792Z" fill="#DADBD8"/>
<path d="M119.12 230.053C133.623 233.14 145.378 235.633 145.38 235.623C145.382 235.614 133.63 233.105 119.127 230.018C104.633 226.934 92.8754 224.44 92.8733 224.449C92.8712 224.46 104.626 226.969 119.12 230.053Z" fill="#DADBD8"/>
<path d="M118.553 234.469C133.366 235.149 145.371 235.691 145.371 235.681C145.371 235.671 133.368 235.112 118.554 234.433C103.752 233.755 91.7437 233.212 91.7437 233.222C91.7437 233.233 103.75 233.791 118.553 234.469Z" fill="#DADBD8"/>
<path d="M141.358 235.789C141.382 237.964 143.165 239.706 145.34 239.682C147.515 239.658 149.257 237.875 149.233 235.701C149.209 233.525 147.426 231.782 145.251 231.807C143.076 231.831 141.334 233.615 141.358 235.789Z" fill="#33535F"/>
<path d="M62.6991 283.083C62.6248 276.508 67.8955 271.117 74.4713 271.042C81.0471 270.969 86.4379 276.239 86.5124 282.814C86.5866 289.391 81.316 294.781 74.7402 294.855C68.1639 294.93 62.7736 289.659 62.6991 283.083ZM59.266 283.123C59.3615 291.594 66.3071 298.385 74.7789 298.289C83.2508 298.194 90.0408 291.248 89.9458 282.776C89.8498 274.304 82.9043 267.514 74.4321 267.61C65.9604 267.705 59.17 274.65 59.266 283.123Z" fill="#17282F"/>
<path d="M72.4715 281.472L76.153 281.431L75.2292 199.653L88.1586 199.507L88.1171 195.827L71.5062 196.013L72.4715 281.472Z" fill="#33535F"/>
<path d="M55.3836 289.001C55.3807 288.539 54.8444 221.399 55.0448 208.687C55.0868 206.065 55.9553 204.063 57.7001 202.567C62.7106 198.272 73.0086 199.643 73.1131 199.656L73.6235 196.01C73.1352 195.941 61.59 194.394 55.3117 199.765C52.7505 201.956 51.4227 204.939 51.3637 208.629C51.1621 221.381 51.6992 288.562 51.7021 289.026L55.3836 289.001Z" fill="#33535F"/>
<path d="M26.138 289.945L55.649 289.613L55.6083 286.016L26.0974 286.35L26.138 289.945Z" fill="#33535F"/>
<path d="M87.916 235.94C87.5478 203.361 113.127 176.66 145.049 176.299C176.97 175.939 203.147 202.056 203.515 234.633C203.883 267.212 178.303 293.914 146.381 294.274C114.46 294.635 88.2841 268.519 87.916 235.94ZM83.5224 235.99C83.9103 270.337 112.07 297.868 146.418 297.48C180.766 297.091 208.295 268.932 207.908 234.584C207.52 200.237 179.361 172.706 145.013 173.094C110.664 173.482 83.1345 201.641 83.5224 235.99Z" fill="#17282F"/>
<path d="M212.079 138.177C212.079 138.177 211.626 139.21 210.529 143.342C209.431 147.474 184.896 183.913 184.896 183.913C184.896 183.913 183.125 189.196 180.852 190.595C178.579 191.995 169.658 195.07 169.658 195.07L166.29 192.82C166.29 192.82 163.731 194.452 162.11 192.866C160.49 191.283 160.315 189.912 160.315 189.912C160.315 189.912 159.13 192.443 157.971 191.083C156.811 189.723 156.798 188.578 156.798 188.578L159.225 180.541L162.184 179.134C162.184 179.134 158.073 179.868 155.313 178.754C155.313 178.754 152.607 177.596 152.449 176.618L153.219 175.383C153.219 175.383 156.703 176.131 158.608 175.766C160.513 175.401 167.396 173.66 167.396 173.66L174.948 174.847L191.71 140.6L192.854 136.473C199.937 133.055 206.649 131.458 212.057 136.256L212.079 138.177Z" fill="#F9B1A2"/>
<path d="M191.53 80.8617C191.498 80.8844 191.278 80.6408 190.748 80.3548C190.231 80.0627 189.435 79.6921 188.419 79.369C187.913 79.2266 187.335 79.0315 186.77 79.1192C186.144 79.1977 185.48 79.3081 184.79 79.463C183.41 79.7768 181.924 80.2691 180.45 80.9742C177.483 82.3739 175.225 84.3765 173.789 85.9631C172.365 87.5755 171.694 88.745 171.611 88.6945C171.579 88.6769 171.726 88.3734 172.022 87.8387C172.325 87.3092 172.818 86.5721 173.501 85.7153C174.888 84.0338 177.172 81.927 180.219 80.489C181.732 79.7654 183.263 79.273 184.684 78.9788C185.397 78.8333 186.08 78.7373 186.723 78.6753C187.434 78.601 188.022 78.8415 188.54 79.0087C190.623 79.752 191.643 80.778 191.53 80.8617Z" fill="#17282F"/>
<path d="M156.255 77.9332C156.255 77.9332 156.588 71.9657 157.314 71.0532C158.039 70.1396 179.925 65.6235 180.347 67.1182C180.769 68.6119 180.347 72.3776 180.347 72.3776C180.347 72.3776 159.097 78.2842 156.255 77.9332Z" fill="#F2575D"/>
<path d="M179.708 72.1359C179.721 72.171 179.417 72.3124 178.856 72.5395C178.295 72.7635 177.473 73.0659 176.447 73.4066C174.396 74.0868 171.517 74.9054 168.281 75.5609C165.041 76.1958 162.088 76.6489 159.899 76.6892C158.806 76.6964 157.921 76.5571 157.333 76.3919C156.743 76.2278 156.443 76.0678 156.454 76.0389C156.477 75.9511 157.751 76.4332 159.889 76.3083C162.013 76.1751 164.96 75.6641 168.175 75.0334C171.39 74.3831 174.265 73.6285 176.337 73.0422C178.408 72.4579 179.681 72.0605 179.708 72.1359Z" fill="#17282F"/>
<path d="M168.037 75.2163C167.878 75.2039 167.942 73.6978 167.491 71.9327C167.06 70.1613 166.295 68.8638 166.43 68.7781C166.535 68.6893 167.552 69.925 168.014 71.8026C168.488 73.6762 168.172 75.2442 168.037 75.2163Z" fill="#17282F"/>
<path d="M173.813 73.3365C173.655 73.3097 173.831 72.008 173.462 70.4802C173.116 68.9453 172.384 67.8562 172.513 67.7623C172.609 67.6622 173.606 68.6903 173.985 70.3584C174.381 72.0214 173.943 73.3829 173.813 73.3365Z" fill="#17282F"/>
<path d="M162.199 76.2123C162.167 76.267 161.791 76.1349 161.373 75.6693C160.954 75.2131 160.562 74.411 160.46 73.4747C160.36 72.5426 160.5 71.7157 160.63 71.1428C160.765 70.5658 160.897 70.2241 160.97 70.2365C161.044 70.2479 161.044 70.6174 161.006 71.1965C160.973 71.7767 160.901 72.5684 160.993 73.4148C161.087 74.2561 161.376 74.9767 161.676 75.4402C161.971 75.9088 162.248 76.1442 162.199 76.2123Z" fill="#17282F"/>
<path d="M200.707 132.558C200.541 132.57 200.468 130.224 199.396 127.604C198.356 124.968 196.786 123.226 196.914 123.118C196.991 123.012 198.806 124.656 199.895 127.402C201.009 130.139 200.837 132.581 200.707 132.558Z" fill="#17282F"/>
<path d="M209.073 132.155C208.916 132.098 209.855 130.121 209.596 127.547C209.384 124.967 208.101 123.195 208.245 123.111C208.295 123.073 208.689 123.456 209.128 124.221C209.566 124.983 210.005 126.149 210.131 127.498C210.252 128.847 210.034 130.075 209.74 130.903C209.448 131.736 209.13 132.183 209.073 132.155Z" fill="#17282F"/>
<path d="M108.7 70.3048C108.669 70.2047 109.722 70.024 111.048 69.0465C112.398 68.102 113.823 66.2903 115.192 64.1525C116.553 62.0023 117.923 60.103 118.747 58.6908C119.577 57.2488 119.409 56.1711 119.491 56.1731C119.521 56.167 119.614 56.4219 119.61 56.9061C119.61 57.3892 119.456 58.0901 119.086 58.8632C118.719 59.6395 118.166 60.4756 117.583 61.4129C116.974 62.3636 116.324 63.3794 115.642 64.4457C114.266 66.598 112.736 68.4509 111.264 69.3603C110.545 69.8238 109.894 70.086 109.433 70.2026C108.97 70.3203 108.706 70.3348 108.7 70.3048Z" fill="#17282F"/>
<path d="M112.968 67.1295C112.975 67.1862 112.31 67.3029 111.29 67.0066C110.275 66.7227 108.977 65.9465 107.935 64.7243C106.897 63.5011 106.272 62.1973 105.862 61.2621C105.459 60.3186 105.266 59.7147 105.331 59.6848C105.401 59.6518 105.717 60.203 106.204 61.0949C106.695 61.9805 107.359 63.2172 108.343 64.3733C109.325 65.5253 110.495 66.2913 111.414 66.6464C112.335 67.0138 112.972 67.0397 112.968 67.1295Z" fill="#17282F"/>
<path d="M117.664 61.1249C117.655 61.2622 115.987 61.0361 114.418 59.7778C112.835 58.5329 112.239 56.9587 112.37 56.9194C112.511 56.841 113.277 58.2026 114.751 59.3566C116.209 60.5313 117.709 60.97 117.664 61.1249Z" fill="#17282F"/>
</svg>
