<svg width="279" height="70" viewBox="0 0 279 70" fill="none" xmlns="http://www.w3.org/2000/svg">
<g clip-path="url(#clip0_300_26695)">
<path d="M39.0797 20.1279C40.3274 20.0439 42.4708 18.9239 43.3866 18.3745L46.2332 24.3169C46.1974 24.5788 45.7455 25.533 44.2244 27.2546C42.3231 29.4066 37.3535 30.5819 34.4193 31.2465C31.4852 31.9111 30.2569 32.3052 27.2153 33.7554C24.782 34.9157 15.3079 45.6544 14.5737 47.4371L2.53405 31.2465C3.27647 30.0963 12.8218 20.4945 15.4736 18.8214C18.7883 16.73 25.545 17.5828 28.9252 18.5385C32.3053 19.4942 37.52 20.2329 39.0797 20.1279Z" fill="#F2575D" stroke="#4540DB" stroke-width="2.19388"/>
<circle cx="64.2643" cy="65.1318" r="1.82731" stroke="#4540DB" stroke-width="2.19388"/>
<circle cx="45.2425" cy="9.03967" r="5.01741" fill="white" stroke="#4540DB" stroke-width="2.19388"/>
<path d="M40.9883 19.6732L38.5957 23.9266L34.2819 31.8113L35.1398 41.738C41.1655 43.5103 53.9082 47.0016 56.6729 46.789C59.4377 46.5763 59.4993 46.978 59.5972 47.3207C60.4833 50.4221 62.3619 57.1036 62.7873 59.0177C63.319 61.4102 63.8506 61.4102 66.509 61.6761C68.6358 61.8888 68.813 59.9924 68.6358 59.0177L68.1041 56.8909C67.1293 52.7261 65.1267 43.8647 64.914 41.738C64.7013 39.6113 63.4076 39.0796 62.7873 39.0796H52.9511C51.4624 39.0796 51.0903 37.839 51.0903 37.2187V22.3316C51.0903 19.6732 47.6343 18.0781 44.7101 18.0781C42.3707 18.0781 41.2541 19.1415 40.9883 19.6732Z" fill="#F9F9F9" stroke="#4540DB" stroke-width="2.19388"/>
<path d="M43.381 27.3825L39.3934 32.6993V39.6112M39.6592 35.8894H50.5587" stroke="#4540DB" stroke-width="2.19388" stroke-linecap="round" stroke-linejoin="round"/>
<circle cx="43.1154" cy="53.1694" r="13.5579" fill="#FCFCFC" stroke="#4540DB" stroke-width="2.12673"/>
<circle cx="43.1152" cy="53.1691" r="2.53936" stroke="#4540DB" stroke-width="0.769782"/>
<path d="M53.897 61.9418H69.8474" stroke="#4540DB" stroke-width="2.19388" stroke-linecap="round" stroke-linejoin="round"/>
</g>
<path d="M96.684 51.44C94.308 51.44 92.0053 51.1027 89.776 50.428C87.576 49.7533 85.8307 48.8587 84.54 47.744L86.52 43.3C87.7813 44.2973 89.3213 45.1187 91.14 45.764C92.988 46.38 94.836 46.688 96.684 46.688C98.972 46.688 100.673 46.3213 101.788 45.588C102.932 44.8547 103.504 43.8867 103.504 42.684C103.504 41.804 103.181 41.0853 102.536 40.528C101.92 39.9413 101.128 39.4867 100.16 39.164C99.192 38.8413 97.872 38.4747 96.2 38.064C93.8533 37.5067 91.9467 36.9493 90.48 36.392C89.0427 35.8347 87.796 34.9693 86.74 33.796C85.7133 32.5933 85.2 30.98 85.2 28.956C85.2 27.2547 85.6547 25.7147 86.564 24.336C87.5027 22.928 88.896 21.8133 90.744 20.992C92.6213 20.1707 94.9093 19.76 97.608 19.76C99.4853 19.76 101.333 19.9947 103.152 20.464C104.971 20.9333 106.54 21.608 107.86 22.488L106.056 26.932C104.707 26.14 103.299 25.5387 101.832 25.128C100.365 24.7173 98.9427 24.512 97.564 24.512C95.3053 24.512 93.6187 24.8933 92.504 25.656C91.4187 26.4187 90.876 27.4307 90.876 28.692C90.876 29.572 91.184 30.2907 91.8 30.848C92.4453 31.4053 93.252 31.8453 94.22 32.168C95.188 32.4907 96.508 32.8573 98.18 33.268C100.468 33.796 102.345 34.3533 103.812 34.94C105.279 35.4973 106.525 36.3627 107.552 37.536C108.608 38.7093 109.136 40.2933 109.136 42.288C109.136 43.9893 108.667 45.5293 107.728 46.908C106.819 48.2867 105.425 49.3867 103.548 50.208C101.671 51.0293 99.3827 51.44 96.684 51.44ZM123.256 27.24C126.717 27.24 129.357 28.076 131.176 29.748C133.024 31.3907 133.948 33.884 133.948 37.228V51H128.756V48.14C128.081 49.1667 127.113 49.9587 125.852 50.516C124.62 51.044 123.124 51.308 121.364 51.308C119.604 51.308 118.064 51.0147 116.744 50.428C115.424 49.812 114.397 48.976 113.664 47.92C112.96 46.8347 112.608 45.6173 112.608 44.268C112.608 42.156 113.385 40.4693 114.94 39.208C116.524 37.9173 119.003 37.272 122.376 37.272H128.448V36.92C128.448 35.2773 127.949 34.016 126.952 33.136C125.984 32.256 124.532 31.816 122.596 31.816C121.276 31.816 119.971 32.0213 118.68 32.432C117.419 32.8427 116.348 33.4147 115.468 34.148L113.312 30.144C114.544 29.2053 116.025 28.4867 117.756 27.988C119.487 27.4893 121.32 27.24 123.256 27.24ZM122.508 47.304C123.887 47.304 125.104 46.996 126.16 46.38C127.245 45.7347 128.008 44.8253 128.448 43.652V40.924H122.772C119.604 40.924 118.02 41.9653 118.02 44.048C118.02 45.0453 118.416 45.8373 119.208 46.424C120 47.0107 121.1 47.304 122.508 47.304ZM170.662 27.24C173.625 27.24 175.972 28.1053 177.702 29.836C179.433 31.5373 180.298 34.104 180.298 37.536V51H174.798V38.24C174.798 36.1867 174.344 34.6467 173.434 33.62C172.525 32.564 171.22 32.036 169.518 32.036C167.67 32.036 166.189 32.652 165.074 33.884C163.96 35.0867 163.402 36.8173 163.402 39.076V51H157.902V38.24C157.902 36.1867 157.448 34.6467 156.538 33.62C155.629 32.564 154.324 32.036 152.622 32.036C150.745 32.036 149.249 32.6373 148.134 33.84C147.049 35.0427 146.506 36.788 146.506 39.076V51H141.006V27.504H146.242V30.496C147.122 29.44 148.222 28.6333 149.542 28.076C150.862 27.5187 152.329 27.24 153.942 27.24C155.702 27.24 157.257 27.5773 158.606 28.252C159.985 28.8973 161.07 29.8653 161.862 31.156C162.83 29.924 164.077 28.9707 165.602 28.296C167.128 27.592 168.814 27.24 170.662 27.24ZM196.303 27.24C199.764 27.24 202.404 28.076 204.223 29.748C206.071 31.3907 206.995 33.884 206.995 37.228V51H201.803V48.14C201.128 49.1667 200.16 49.9587 198.899 50.516C197.667 51.044 196.171 51.308 194.411 51.308C192.651 51.308 191.111 51.0147 189.791 50.428C188.471 49.812 187.444 48.976 186.711 47.92C186.007 46.8347 185.655 45.6173 185.655 44.268C185.655 42.156 186.432 40.4693 187.987 39.208C189.571 37.9173 192.049 37.272 195.423 37.272H201.495V36.92C201.495 35.2773 200.996 34.016 199.999 33.136C199.031 32.256 197.579 31.816 195.643 31.816C194.323 31.816 193.017 32.0213 191.727 32.432C190.465 32.8427 189.395 33.4147 188.515 34.148L186.359 30.144C187.591 29.2053 189.072 28.4867 190.803 27.988C192.533 27.4893 194.367 27.24 196.303 27.24ZM195.555 47.304C196.933 47.304 198.151 46.996 199.207 46.38C200.292 45.7347 201.055 44.8253 201.495 43.652V40.924H195.819C192.651 40.924 191.067 41.9653 191.067 44.048C191.067 45.0453 191.463 45.8373 192.255 46.424C193.047 47.0107 194.147 47.304 195.555 47.304ZM219.289 30.936C220.873 28.472 223.66 27.24 227.649 27.24V32.476C227.18 32.388 226.755 32.344 226.373 32.344C224.232 32.344 222.56 32.9747 221.357 34.236C220.155 35.468 219.553 37.2573 219.553 39.604V51H214.053V27.504H219.289V30.936ZM247.298 49.724C246.653 50.252 245.861 50.648 244.922 50.912C244.013 51.176 243.045 51.308 242.018 51.308C239.437 51.308 237.442 50.6333 236.034 49.284C234.626 47.9347 233.922 45.9693 233.922 43.388V32.08H230.05V27.68H233.922V22.312H239.422V27.68H245.714V32.08H239.422V43.256C239.422 44.4 239.701 45.28 240.258 45.896C240.816 46.4827 241.622 46.776 242.678 46.776C243.91 46.776 244.937 46.4533 245.758 45.808L247.298 49.724ZM265.155 27.24C268.118 27.24 270.494 28.1053 272.283 29.836C274.072 31.5667 274.967 34.1333 274.967 37.536V51H269.467V38.24C269.467 36.1867 268.983 34.6467 268.015 33.62C267.047 32.564 265.668 32.036 263.879 32.036C261.855 32.036 260.256 32.652 259.083 33.884C257.91 35.0867 257.323 36.832 257.323 39.12V51H251.823V18.352H257.323V30.232C258.232 29.264 259.347 28.5307 260.667 28.032C262.016 27.504 263.512 27.24 265.155 27.24Z" fill="#4540DB"/>
<defs>
<clipPath id="clip0_300_26695">
<rect width="70" height="70" fill="white"/>
</clipPath>
</defs>
</svg>
