<svg width="143" height="384" viewBox="0 0 143 384" fill="none" xmlns="http://www.w3.org/2000/svg">
<path d="M81.7387 253.562C82 254.871 90.9018 280.529 90.9018 280.529L91.3501 307.2C91.4087 310.698 91.9336 314.171 92.9091 317.529L101.759 352.016L118.14 352.223C118.14 352.223 116.948 290.797 116.037 280.847C115.126 270.898 112.037 249.767 112.037 249.767L81.7387 253.562Z" fill="#9D575A"/>
<path d="M100.835 351.638L96.4818 331.45L117.647 330.61L118.54 352.826C118.54 352.826 102.93 359.804 100.835 351.638Z" fill="#E7E8E5"/>
<path d="M120.481 351.789L120.517 349.826C113.61 352.26 106.792 352.37 100.06 350.243L100.384 364.391L142.987 363.635C142.666 359.57 120.481 351.789 120.481 351.789Z" fill="#33535F"/>
<path d="M100.383 364.391L100.305 360.934L141.266 361.503C141.266 361.503 143.178 362.295 142.987 363.635L100.383 364.391Z" fill="#17282F"/>
<path d="M120.593 351.819C120.59 352.027 119.551 352.14 118.54 352.826C117.51 353.488 116.998 354.399 116.805 354.319C116.613 354.282 116.901 353.034 118.14 352.223C119.372 351.402 120.635 351.628 120.593 351.819Z" fill="#17282F"/>
<path d="M106.389 357.08C106.389 357.697 105.888 358.198 105.27 358.198C104.653 358.198 104.151 357.697 104.151 357.08C104.151 356.461 104.653 355.96 105.27 355.96C105.888 355.96 106.389 356.461 106.389 357.08Z" fill="#17282F"/>
<path d="M120.269 351.681C120.273 351.717 119.971 351.809 119.404 351.912C118.847 351.993 117.967 352.155 116.928 351.776C116.672 351.681 116.418 351.545 116.174 351.376C115.932 351.209 115.674 351.013 115.486 350.69C115.277 350.371 115.317 349.836 115.61 349.54C115.877 349.222 116.313 349.085 116.692 349.083C118.182 349.098 119.755 350.004 120.53 351.553L119.979 351.722C119.935 351.416 119.918 351.084 119.939 350.751C120.03 348.916 121.252 347.368 122.677 346.738C122.855 346.659 123.063 346.569 123.321 346.575C123.579 346.578 123.837 346.727 123.972 346.917C124.245 347.297 124.263 347.716 124.216 348.074C124.118 348.789 123.774 349.374 123.405 349.82C122.64 350.735 121.725 351.065 121.18 351.336C120.608 351.59 120.288 351.716 120.269 351.681C120.247 351.645 120.537 351.448 121.075 351.133C121.596 350.8 122.44 350.417 123.08 349.562C123.397 349.141 123.672 348.613 123.732 348.018C123.768 347.736 123.714 347.424 123.567 347.236C123.427 347.056 123.229 347.068 122.908 347.226C121.656 347.815 120.605 349.176 120.523 350.789C120.506 351.079 120.52 351.37 120.558 351.638C120.581 351.798 120.471 351.947 120.311 351.97C120.183 351.99 120.06 351.92 120.005 351.809C119.355 350.47 117.942 349.647 116.701 349.61C116.104 349.574 115.657 350.065 115.902 350.467C116.146 350.885 116.661 351.216 117.08 351.405C117.974 351.79 118.824 351.712 119.38 351.694C119.947 351.66 120.262 351.64 120.269 351.681Z" fill="#17282F"/>
<path d="M117.81 333.736C117.811 333.817 116.658 333.928 114.793 334.042C112.929 334.158 110.353 334.275 107.509 334.37C104.662 334.463 102.083 334.516 100.216 334.525C98.3482 334.534 97.1903 334.499 97.1858 334.417C97.1813 334.337 98.3313 334.227 100.197 334.11C102.061 333.996 104.639 333.877 107.489 333.784C110.337 333.689 112.918 333.636 114.787 333.627C116.654 333.618 117.809 333.654 117.81 333.736Z" fill="#33535F"/>
<path d="M118.259 335.679C118.26 335.76 117.107 335.871 115.243 335.986C113.379 336.102 110.803 336.219 107.956 336.313C105.111 336.407 102.533 336.46 100.665 336.469C98.7966 336.478 97.6386 336.442 97.6341 336.361C97.6296 336.281 98.7808 336.17 100.645 336.055C102.509 335.94 105.087 335.821 107.938 335.728C110.787 335.633 113.367 335.58 115.235 335.571C117.103 335.562 118.258 335.597 118.259 335.679Z" fill="#33535F"/>
<path d="M27.9684 356.298C27.2509 355.595 29.7041 349.295 29.7041 349.295H39.7469V356.298H27.9684Z" fill="#DADBD8"/>
<path d="M31.5291 258.724C31.5291 258.724 29.8373 272.744 31.5291 274.754C33.2198 276.763 39.4047 276.082 41.5989 274.969C43.56 273.975 43.266 258.724 43.266 258.724L37.0213 252.276L31.5291 258.724Z" fill="#DADBD8"/>
<path d="M31.6204 349.826L33.4271 275.46H39.7472L37.865 349.826H31.6204Z" fill="#DADBD8"/>
<path d="M41.9921 274.895C42.0338 274.946 41.5551 275.409 40.5886 275.829C39.6289 276.247 38.1995 276.602 36.6012 276.603C35.0051 276.625 33.5532 276.285 32.6093 275.799C31.6485 275.315 31.2858 274.707 31.3421 274.677C31.4153 274.611 31.8524 275.069 32.7794 275.422C33.6974 275.778 35.0716 276.037 36.5967 276.017C38.124 276.016 39.4926 275.742 40.4433 275.44C41.3962 275.14 41.938 274.816 41.9921 274.895Z" fill="#17282F"/>
<path d="M40.158 349.392C40.158 349.554 37.7487 349.685 34.7784 349.685C31.8082 349.685 29.4011 349.554 29.4011 349.392C29.4011 349.231 31.8082 349.099 34.7784 349.099C37.7487 349.099 40.158 349.231 40.158 349.392Z" fill="#17282F"/>
<path d="M41.8906 356.58C41.8906 356.58 29.2706 355.221 29.9177 346.977L26.8536 348.452L4 361C2.75147 361.83 1.35744 364.666 2.00003 366C2.49396 367.027 7.89231 366.721 8.99317 366.678C14.8847 366.451 36.555 365.506 37.8272 363.851L41.5001 361.999C42.2523 361.136 42.3805 357.593 41.8906 356.58Z" fill="#33535F"/>
<path d="M2.00001 366L41.5001 361.999L40.5001 362.999C39.7132 364.05 36.7619 364.38 35.7585 364.597C32.7879 365.238 21.384 366.295 5 367C4.04682 367.04 2.54062 366.784 2.00001 366Z" fill="#17282F"/>
<path d="M19.6208 360.593C19.453 360.545 19.9896 359.011 19.3145 357.295C18.6897 355.557 17.2958 354.815 17.387 354.661C17.4175 354.592 17.8232 354.666 18.3625 355.037C18.8989 355.402 19.5254 356.107 19.8872 357.06C20.2431 358.014 20.2446 358.976 20.0885 359.625C19.9361 360.28 19.6871 360.622 19.6208 360.593Z" fill="#17282F"/>
<path d="M25.5864 359.454C25.4 359.466 25.3557 357.477 24.3299 355.364C23.3374 353.233 21.8448 351.984 21.9668 351.839C22.0352 351.695 23.8113 352.8 24.8825 355.081C25.9746 357.352 25.7373 359.485 25.5864 359.454Z" fill="#17282F"/>
<path d="M30.5017 354.673C30.3325 354.75 29.647 353.223 28.2318 351.814C26.8373 350.384 25.3283 349.698 25.4024 349.527C25.4402 349.371 27.1655 349.835 28.668 351.366C30.1845 352.884 30.6533 354.636 30.5017 354.673Z" fill="#17282F"/>
<path d="M28.7996 351.647C28.785 351.627 29.1018 351.355 29.7705 351.016C30.4357 350.685 31.4814 350.299 32.836 350.239C33.1688 350.231 33.5325 350.213 33.92 350.315C34.2881 350.392 34.764 350.714 34.7879 351.236C34.8176 351.723 34.5003 352.171 34.105 352.404C33.7058 352.645 33.2812 352.753 32.8494 352.866C31.9743 353.074 31.0274 353.153 30.0392 353.017C29.551 352.94 29.0034 352.757 28.6245 352.316C28.2533 351.877 28.1247 351.331 28.0385 350.828C27.7204 348.791 27.768 346.843 28.2416 345.066C28.3309 344.845 28.4563 344.613 28.6844 344.448C28.9132 344.28 29.2357 344.251 29.4849 344.363C29.978 344.61 30.1509 345.059 30.276 345.441C30.5144 346.212 30.5714 346.97 30.5142 347.646C30.4062 349.008 29.8812 350.018 29.4515 350.624C29.2328 350.93 29.0344 351.145 28.8916 351.279C28.747 351.412 28.6664 351.475 28.6546 351.464C28.6235 351.436 28.9168 351.143 29.2986 350.524C29.6693 349.905 30.1228 348.917 30.1822 347.624C30.2166 346.983 30.1427 346.274 29.9054 345.561C29.8014 345.223 29.5986 344.862 29.3264 344.745C29.0519 344.621 28.7745 344.844 28.6455 345.222C28.2434 346.825 28.1866 348.807 28.5011 350.749C28.5805 351.23 28.7057 351.692 28.9795 352.012C29.249 352.33 29.6752 352.491 30.1137 352.563C31.011 352.693 31.9276 352.631 32.7496 352.445C33.1611 352.345 33.5745 352.237 33.8889 352.05C34.2069 351.872 34.4074 351.56 34.3989 351.257C34.3927 350.961 34.1347 350.748 33.8209 350.664C33.5095 350.57 33.168 350.572 32.8432 350.571C31.5459 350.587 30.5187 350.91 29.8459 351.183C29.1687 351.462 28.8203 351.681 28.7996 351.647Z" fill="#17282F"/>
<path d="M25.2269 169.204C24.9735 169.127 21.2103 188.54 20.2134 197.021C19.2155 205.5 17.0168 250.584 17.0168 250.584C17.0168 250.584 18.7638 258.813 27.9911 259.063C37.2195 259.313 50.9378 260.31 50.9378 260.31L66.153 228.883L80.3701 260.31C80.3701 260.31 104.065 259.063 109.552 256.818C115.039 254.575 116.037 253.326 116.037 253.326C116.037 253.326 110.3 222.647 109.053 214.916C107.805 207.183 101.516 183.842 101.516 183.842L25.2269 169.204Z" fill="#17282F"/>
<path d="M63.7873 230.877C63.6262 230.88 63.3018 221.671 63.063 210.31C62.8242 198.945 62.7623 189.732 62.9245 189.729C63.0856 189.725 63.41 198.932 63.6488 210.298C63.8876 221.658 63.9495 230.873 63.7873 230.877Z" fill="#33535F"/>
<path d="M54.195 204.281C54.1105 204.269 54.1961 203.226 54.3313 201.543C54.4665 199.86 54.6321 197.537 54.7222 194.967C54.8112 192.395 54.8044 190.065 54.7853 188.378C54.7661 186.691 54.7537 185.643 54.8382 185.636C54.9148 185.631 55.0747 186.669 55.1986 188.36C55.3248 190.052 55.3969 192.398 55.309 194.986C55.2189 197.575 54.9846 199.91 54.7424 201.589C54.5025 203.268 54.2705 204.293 54.195 204.281Z" fill="#33535F"/>
<path d="M72.9327 202.572C72.7919 202.641 71.2172 199.784 69.611 196.099C67.9991 192.415 66.9719 189.318 67.1205 189.263C67.276 189.204 68.5432 192.196 70.1494 195.865C71.7489 199.534 73.0814 202.497 72.9327 202.572Z" fill="#33535F"/>
<path d="M92.0865 20.5271C92.0415 19.9302 91.7463 19.3805 91.3994 18.8916C90.2685 17.3001 88.5069 16.1692 86.5875 15.8053C88.187 14.9932 89.8 14.1045 90.9737 12.7483C92.1462 11.3911 92.8097 9.45818 92.2194 7.7641C91.6394 6.0948 90.0106 5.01687 88.3661 4.37032C86.0807 3.47147 83.5035 3.1741 81.1527 3.88034C78.8009 4.58545 76.7249 6.38204 76.0029 8.72942L78.3097 14.6407C78.606 16.9678 79.542 19.2093 80.9849 21.0577C81.6461 21.9036 82.6137 22.736 83.6635 22.5141C84.5567 22.326 85.1379 21.3967 85.2246 20.4866C85.3125 19.5776 85.014 18.681 84.72 17.8159C85.8892 19.4999 87.4841 20.8853 89.3156 21.8078C89.9498 22.1266 90.7202 22.3879 91.3488 22.0545C91.877 21.7729 92.1327 21.1241 92.0865 20.5271Z" fill="#17282F"/>
<path d="M92.9786 8.36682C92.9516 8.42314 92.1631 7.98834 90.7811 7.62114C89.4103 7.24831 87.4042 7.01516 85.2753 7.46684C83.1465 7.91965 81.4084 8.95027 80.308 9.848C79.1962 10.7446 78.6522 11.4632 78.6049 11.4227C78.588 11.4092 78.7051 11.2177 78.9574 10.8989C79.2086 10.579 79.6051 10.142 80.1525 9.66103C81.2339 8.69797 83.0068 7.59863 85.2043 7.13005C87.4008 6.66373 89.4677 6.94756 90.8487 7.38684C91.5436 7.60424 92.0843 7.84193 92.4436 8.03229C92.8029 8.22152 92.9888 8.34767 92.9786 8.36682Z" fill="#33535F"/>
<path d="M78.9405 14.047C79.0329 13.5807 78.9495 13.0986 78.8661 12.63C78.5327 10.7512 78.1362 8.74853 76.7981 7.38898C76.5616 7.14906 76.2586 6.92043 75.9241 6.95985C75.3935 7.02068 75.1716 7.69763 75.2573 8.22478C75.3417 8.75192 75.6075 9.25879 75.5613 9.79044L76.4579 13.5897C76.5086 14.0065 76.654 14.4244 76.9423 14.7296C77.2307 15.0349 77.6789 15.2072 78.0844 15.0968C78.5429 14.9696 78.8493 14.5145 78.9405 14.047Z" fill="#33535F"/>
<path d="M75.4668 40.6982C76.9604 36.534 78.4359 32.3371 79.1895 27.9791C79.9419 23.62 79.9464 19.0526 78.5295 14.8624C78.3143 14.2271 76.4479 9.95254 75.7799 9.99872C75.3023 10.0314 76.4107 13.9996 76.1573 14.4062C73.7389 18.2889 72.973 23.0219 73.2039 27.5905C73.4348 32.1592 74.2605 36.2862 75.4668 40.6982Z" fill="#17282F"/>
<path d="M74.8113 62.3182L76.4063 23.8421C77.0967 12.7697 71.2294 3.13918 60.1413 2.75508L58.9372 2.78324C48.704 3.02541 40.3733 11.0847 39.7921 21.3032C39.2413 30.9495 38.7558 41.6615 38.9428 46.8327C39.3257 57.4702 50.0095 58.8726 50.0095 58.8726C50.0331 58.8737 49.996 61.3394 49.934 64.4639C49.934 64.4639 50.6752 70.525 60.5896 70.8145C70.5085 71.1028 74.8113 62.3182 74.8113 62.3182Z" fill="#9D575A"/>
<path d="M50.0094 58.8725C50.0094 58.8725 56.7272 59.1068 63.7693 54.4481C63.7693 54.4481 60.5749 62.2675 49.9317 61.5612L50.0094 58.8725Z" fill="#773C3E"/>
<path d="M45.9882 30.5496C45.9803 31.3539 46.6516 32.0241 47.4908 32.0489C48.3288 32.0736 49.0159 31.4451 49.025 30.642C49.0351 29.8389 48.3626 29.1664 47.5246 29.1417C46.6865 29.1169 45.9984 29.7476 45.9882 30.5496Z" fill="#17282F"/>
<path d="M42.1608 25.2704C42.3534 25.4641 43.4843 24.5844 45.1209 24.5495C46.7531 24.4921 47.974 25.3053 48.1464 25.1003C48.232 25.0102 48.0315 24.6565 47.4987 24.2882C46.9749 23.9221 46.0896 23.5741 45.0714 23.6022C44.0531 23.6326 43.2049 24.028 42.7206 24.4233C42.2284 24.8209 42.0651 25.1836 42.1608 25.2704Z" fill="#17282F"/>
<path d="M60.3732 30.5508C60.3631 31.3539 61.0366 32.0241 61.8747 32.0489C62.7116 32.0736 63.3997 31.4451 63.4088 30.642C63.4178 29.8389 62.7453 29.1676 61.9084 29.1417C61.0693 29.1169 60.3822 29.7476 60.3732 30.5508Z" fill="#17282F"/>
<path d="M58.1947 25.8411C58.3885 26.0348 59.5216 25.1551 61.1549 25.1202C62.7893 25.0627 64.0092 25.876 64.1815 25.671C64.266 25.5797 64.0677 25.2272 63.5349 24.8589C63.0112 24.4928 62.1258 24.1447 61.1064 24.1729C60.0882 24.2033 59.2401 24.5987 58.7557 24.994C58.2635 25.3916 58.1001 25.7543 58.1947 25.8411Z" fill="#17282F"/>
<path d="M52.6273 38.8284C52.6329 38.7349 51.6124 38.5829 49.96 38.4117C49.5421 38.379 49.1434 38.3047 49.0668 38.022C48.9609 37.7223 49.1265 37.2684 49.3168 36.7773C49.6852 35.7579 50.0704 34.6879 50.4759 33.5682C52.0832 28.9996 53.2367 25.2476 53.0519 25.1846C52.8672 25.1215 51.4142 28.7721 49.8068 33.3407C49.4205 34.4671 49.051 35.5405 48.7007 36.5678C48.5532 37.0465 48.2941 37.5905 48.5216 38.2123C48.6421 38.5221 48.9541 38.7406 49.2233 38.807C49.4937 38.8814 49.728 38.8803 49.9341 38.8881C51.5955 38.9377 52.6228 38.9208 52.6273 38.8284Z" fill="#17282F"/>
<path d="M57.447 21.7629C57.6711 22.1808 59.2571 21.7381 61.19 21.6919C63.1206 21.6074 64.7336 21.9409 64.9284 21.5106C65.0129 21.3045 64.6862 20.9294 64.0059 20.5937C63.3301 20.2569 62.2916 19.9933 61.1336 20.0316C59.9746 20.0722 58.9575 20.4045 58.3064 20.7863C57.6497 21.1682 57.3479 21.5646 57.447 21.7629Z" fill="#17282F"/>
<path d="M41.9445 21.8066C42.2892 22.1682 43.5879 21.7458 45.1626 21.6827C46.7339 21.5735 48.0776 21.8506 48.3739 21.4541C48.5023 21.2615 48.2827 20.8954 47.6891 20.5597C47.1067 20.2263 46.1369 19.9661 45.0556 20.0258C43.9742 20.0855 43.0461 20.4482 42.5099 20.8447C41.9625 21.2412 41.7913 21.6298 41.9445 21.8066Z" fill="#17282F"/>
<path d="M75.7237 31.7425C75.9039 31.6591 82.9855 29.4063 82.9247 36.6873C82.8661 43.9682 75.5683 42.407 75.557 42.1975C75.5469 41.9891 75.7237 31.7425 75.7237 31.7425Z" fill="#9D575A"/>
<path d="M77.8039 39.4571C77.8355 39.4346 77.9301 39.5472 78.143 39.6475C78.3513 39.7455 78.7107 39.8142 79.0914 39.6745C79.8629 39.3985 80.5208 38.182 80.5669 36.8709C80.5906 36.2075 80.4566 35.5756 80.2268 35.0518C80.0083 34.5168 79.667 34.1417 79.2806 34.0696C78.8954 33.9772 78.6194 34.2082 78.5293 34.412C78.4291 34.6148 78.4741 34.7601 78.4358 34.7725C78.4156 34.7905 78.2804 34.6497 78.3412 34.3489C78.3728 34.2048 78.4606 34.0336 78.6319 33.895C78.8076 33.7542 79.0655 33.6844 79.3347 33.7159C79.8956 33.7587 80.3969 34.2791 80.6514 34.8558C80.9353 35.4337 81.1008 36.1444 81.0738 36.8878C81.0152 38.3555 80.2527 39.7218 79.1984 40.018C78.6848 40.1464 78.259 39.9887 78.0405 39.8153C77.8152 39.6328 77.778 39.4706 77.8039 39.4571Z" fill="#773C3E"/>
<path d="M44.6965 9.49739C43.5295 8.82719 47.1306 5.07186 50.048 3.80693C54.4577 1.89659 61.1608 0.788227 65.1775 2.00021C70.0119 3.46113 74.0061 5.94592 76.3692 10.4098C78.7335 14.8725 79.5625 20.0392 79.335 25.0843C79.2652 26.624 79.0782 28.2258 78.2334 29.5155C77.1904 31.1071 75.2215 32.0881 75.2699 34.3093C75.2868 35.1215 75.0412 35.937 74.4758 36.5193C73.1185 37.9138 71.5123 36.5542 70.7858 35.2071C69.2336 32.328 69.1142 28.9207 69.0286 25.652C68.9678 23.3271 68.9137 20.9538 69.6064 18.736C69.9826 17.5274 70.5751 16.3909 70.8849 15.1642C71.1935 13.9376 71.18 12.5398 70.431 11.5215C70.3082 11.3559 70.1065 11.1453 69.8497 10.9133C67.8177 9.07162 64.9421 8.48141 62.3412 9.35098C58.2164 10.7319 51.1788 12.7785 49.3732 11.3559C46.778 9.31041 46.1709 7.99482 46.1709 7.99482L44.6965 9.49739Z" fill="#17282F"/>
<path d="M64.8123 1.00593C60.835 -0.399799 56.2788 -0.407669 52.5032 1.47114C50.4971 2.46798 48.6734 4.08657 48.0314 6.2312C47.3882 8.37696 48.2635 11.0454 50.3225 11.9239L50.4633 12.0163C53.5518 13.1145 55.5782 12.7338 58.6938 11.7145C61.3149 10.8561 63.6589 9.28822 66.2845 8.44343C69.0756 7.54458 72.136 7.50742 74.9475 8.33869C72.2183 5.12286 68.7906 2.41278 64.8123 1.00593Z" fill="#17282F"/>
<path d="M74.1376 7.25941C74.1207 7.28644 73.8199 7.09383 73.232 6.86179C72.6451 6.62863 71.7485 6.39096 70.6199 6.37744C69.4924 6.35604 68.1486 6.58472 66.7542 7.12876C65.3552 7.65928 63.9145 8.47928 62.4209 9.37589C60.9274 10.2725 59.4845 11.1263 58.0697 11.7052C56.6618 12.2977 55.2876 12.5895 54.1297 12.6154C52.9695 12.6503 52.0369 12.4453 51.432 12.2211C51.129 12.1141 50.9015 12.006 50.7539 11.9226C50.6041 11.8415 50.5308 11.7931 50.5354 11.7818C50.5489 11.7018 51.8375 12.5016 54.1195 12.3732C55.247 12.3146 56.5728 12.0105 57.947 11.4135C59.3268 10.83 60.7506 9.97849 62.2453 9.07963C63.74 8.18303 65.2054 7.35852 66.6426 6.83138C68.0743 6.29184 69.4676 6.08009 70.6266 6.13415C71.7868 6.17921 72.7015 6.46192 73.2838 6.73901C73.5778 6.87305 73.7941 7.00147 73.9337 7.09834C74.0734 7.19409 74.1443 7.24927 74.1376 7.25941Z" fill="#33535F"/>
<path d="M71.1009 4.8243C71.0817 4.9054 69.9227 4.16312 67.8411 4.2093C66.8139 4.2307 65.5907 4.45486 64.3201 4.94596C63.0473 5.43256 61.7429 6.19736 60.4239 7.07594C59.1049 7.95677 57.876 8.85114 56.69 9.57427C55.5106 10.3019 54.3786 10.855 53.3829 11.2019C52.3872 11.5488 51.5413 11.6998 50.9556 11.7437C50.6616 11.764 50.4352 11.7718 50.2798 11.7617C50.1243 11.7572 50.0443 11.7482 50.0443 11.7369C50.0342 11.6648 51.361 11.7245 53.2995 10.9744C54.2649 10.6038 55.3653 10.0395 56.5233 9.30618C57.6857 8.57629 58.9056 7.67745 60.2336 6.78986C61.5627 5.90565 62.8941 5.13408 64.2075 4.64861C65.5186 4.16201 66.7801 3.957 67.8389 3.96601C68.8988 3.97728 69.7436 4.18677 70.291 4.40416C70.5647 4.51568 70.7709 4.61142 70.9049 4.69252C71.039 4.76799 71.1065 4.81304 71.1009 4.8243Z" fill="#33535F"/>
<path d="M78.5284 14.225C78.5509 14.2318 78.507 14.4289 78.4068 14.7803C78.3122 15.1351 78.1308 15.6341 77.8695 16.2345C77.3502 17.4363 76.4198 19.0223 75.0569 20.5001C73.6895 21.9723 72.1801 23.0221 71.0222 23.6326C70.4433 23.9401 69.96 24.1597 69.6142 24.2813C69.2696 24.4075 69.078 24.4672 69.069 24.4447C69.0454 24.3895 69.7911 24.0808 70.9028 23.4208C72.0134 22.7664 73.4653 21.7087 74.8046 20.2658C76.1394 18.8184 77.0821 17.2899 77.6498 16.132C78.2209 14.9729 78.4698 14.2059 78.5284 14.225Z" fill="#33535F"/>
<path d="M79.3527 19.378C79.3719 19.3792 79.3741 19.5695 79.3189 19.9086C79.2682 20.2476 79.1342 20.7319 78.8763 21.2918C78.3705 22.4148 77.2407 23.7811 75.6278 24.7543C74.0193 25.7297 72.3861 26.2197 71.2214 26.5407C70.0488 26.8549 69.3133 26.998 69.3009 26.9563C69.2874 26.9067 70.0026 26.6792 71.1515 26.3086C72.2937 25.929 73.8886 25.4087 75.4487 24.4614C77.0076 23.5186 78.1149 22.2368 78.6578 21.1836C79.2165 20.1282 79.2863 19.3634 79.3527 19.378Z" fill="#33535F"/>
<path d="M54.1038 2.23586C54.1387 2.27191 53.7096 2.72135 53.0428 3.46364C52.3838 4.20592 51.4782 5.25796 50.8227 6.61074C50.1705 7.9624 50.0049 9.35235 50.1187 10.3222C50.2223 11.301 50.5242 11.8586 50.4645 11.8833C50.4465 11.8924 50.3529 11.7651 50.2279 11.5094C50.1029 11.2537 49.9644 10.8606 49.8788 10.3548C49.6952 9.34785 49.8303 7.87453 50.5129 6.46205C51.1966 5.05295 52.1563 4.00317 52.866 3.2958C53.5857 2.58956 54.0734 2.20432 54.1038 2.23586Z" fill="#33535F"/>
<path d="M48.99 5.6341C49.0947 5.65775 48.4763 7.15807 48.8841 9.01885C49.2547 10.8886 50.4216 12.015 50.3349 12.0793C50.3078 12.1074 49.9789 11.8765 49.5824 11.3685C49.1837 10.8639 48.7523 10.0585 48.5484 9.0887C48.3468 8.11889 48.4212 7.20765 48.5833 6.58701C48.7455 5.96187 48.9539 5.61833 48.99 5.6341Z" fill="#33535F"/>
<path d="M79.8135 42.1209C79.729 42.1164 79.7155 42.6075 79.4733 43.2901C79.3494 43.6246 79.1354 44.0008 78.7671 44.2194C78.4145 44.4401 77.8829 44.4616 77.4391 44.2397C76.9964 44.0234 76.7137 43.5773 76.6078 43.1459C76.4941 42.7089 76.5582 42.2876 76.6743 41.9531C76.9164 41.2784 77.2915 40.9529 77.2307 40.8932C77.2025 40.8447 76.7159 41.0678 76.3318 41.81C76.1516 42.1739 76.0244 42.692 76.1359 43.2496C76.2395 43.7959 76.5853 44.4018 77.2059 44.7093C77.8086 45.009 78.5328 44.9673 79.0273 44.6271C79.5229 44.2903 79.7347 43.7857 79.827 43.3994C80.0005 42.6019 79.871 42.1187 79.8135 42.1209Z" fill="#17282F"/>
<path d="M82.2635 40.1656C82.2072 40.2196 82.428 40.4652 82.3458 40.8955C82.3097 41.1016 82.1926 41.3449 81.9898 41.4891C81.7938 41.6333 81.4841 41.6715 81.1879 41.5747C80.556 41.3821 80.3611 40.7288 80.405 40.2839C80.4365 39.8265 80.6066 39.554 80.5402 39.5078C80.4985 39.4639 80.191 39.6711 80.0401 40.2208C79.9714 40.4911 79.9522 40.8493 80.0987 41.2199C80.2395 41.5938 80.5886 41.9329 81.0257 42.0726C81.4605 42.2179 81.9639 42.1503 82.2894 41.8676C82.6127 41.5871 82.7175 41.2131 82.7152 40.9225C82.7006 40.2974 82.2793 40.0991 82.2635 40.1656Z" fill="#17282F"/>
<path d="M82.7625 35.34C82.7467 35.4189 83.0429 35.4966 83.32 35.8199C83.6061 36.1296 83.7909 36.7288 83.4304 37.2436C83.0902 37.773 82.4651 37.8305 82.0709 37.684C81.6665 37.55 81.4818 37.3067 81.4165 37.3506C81.3579 37.3686 81.4345 37.737 81.9166 38.0208C82.152 38.1526 82.4842 38.2517 82.8627 38.1943C83.2446 38.1402 83.6253 37.8947 83.8652 37.5365C84.1063 37.1772 84.1885 36.7311 84.0939 36.3583C84.0026 35.9866 83.7852 35.7162 83.5735 35.5484C83.1274 35.2116 82.758 35.2792 82.7625 35.34Z" fill="#17282F"/>
<path d="M55.8272 40.2771C55.5828 40.2681 55.621 41.898 54.257 43.0897C52.8963 44.2859 51.1549 44.1485 51.1493 44.376C51.1279 44.4796 51.5435 44.6824 52.2768 44.6835C52.9955 44.6891 54.0396 44.4312 54.8742 43.7013C55.7066 42.9714 56.0479 42.0151 56.0851 41.346C56.1301 40.6634 55.9376 40.2647 55.8272 40.2771Z" fill="#17282F"/>
<path d="M48.0711 55.1139C47.9123 55.1061 47.8177 54.4088 48.0024 53.5775C48.1849 52.7474 48.5633 52.1538 48.7109 52.2135C48.863 52.2755 48.7447 52.9254 48.5746 53.7048C48.4012 54.482 48.2367 55.1218 48.0711 55.1139Z" fill="#17282F"/>
<path d="M50.0567 55.3774C49.8956 55.3459 49.8675 54.8154 49.8979 54.1835C49.9317 53.5516 50.015 53.0278 50.1772 53.012C50.3372 52.9963 50.5196 53.5347 50.4836 54.2139C50.4498 54.8931 50.2121 55.4101 50.0567 55.3774Z" fill="#17282F"/>
<path d="M51.8657 55.5068C51.7035 55.4989 51.601 54.9334 51.6359 54.2441C51.6697 53.5547 51.8297 53.0028 51.993 53.0107C52.1541 53.0186 52.2565 53.584 52.2216 54.2733C52.1867 54.9627 52.0279 55.5146 51.8657 55.5068Z" fill="#17282F"/>
<path d="M54.2246 54.9887C54.0646 55.018 53.8427 54.5438 53.7279 53.9288C53.6107 53.3127 53.6456 52.79 53.8056 52.7596C53.9655 52.7303 54.1885 53.2045 54.3034 53.8195C54.4194 54.4357 54.3845 54.9583 54.2246 54.9887Z" fill="#17282F"/>
<path d="M124.549 353.414C124.6 353.613 123.705 353.983 123.014 354.877C122.297 355.749 122.135 356.702 121.928 356.697C121.733 356.733 121.567 355.518 122.447 354.424C123.318 353.325 124.541 353.215 124.549 353.414Z" fill="#17282F"/>
<path d="M127.583 358.632C127.395 358.68 127.088 357.645 127.602 356.497C128.107 355.345 129.08 354.878 129.171 355.05C129.292 355.218 128.67 355.841 128.263 356.791C127.833 357.731 127.79 358.608 127.583 358.632Z" fill="#17282F"/>
<path d="M44.6254 65.3446L50.8824 62.2685L74.6795 62.6841L79.158 65.3446L74.6795 75.3649L61.8917 77.5479H52.073L46.6078 69.9076L44.6254 65.3446Z" fill="#9D575A"/>
<path d="M27.8772 67.5906C27.8772 67.5906 20.2189 68.7688 17.2723 74.0706C14.3279 79.3725 12.1675 89.5843 12.1675 89.5843C12.1675 89.5843 8.82887 94.4931 8.43689 101.17C8.43689 101.17 11.6291 97.2617 18.1564 97.2426C25.0668 97.2223 33.5722 104.901 33.5722 104.901L27.8772 67.5906Z" fill="#F2575D"/>
<path d="M27.8772 67.5907L42.0156 64.6441L49.0555 62.7293C49.0555 62.7293 45.9433 75.053 61.6529 74.6599C77.3626 74.2679 76.1799 62.7293 76.1799 62.7293C76.1799 62.7293 88.7255 66.3326 89.3416 66.4125C90.4815 66.5601 100.143 68.9649 100.143 68.9649L96.6068 94.4932L96.8039 135.731C96.8039 135.731 99.3563 164.205 100.143 170.097L101.516 183.842C101.516 183.842 68.5261 189.733 54.1918 183.842C39.8552 177.951 22.4762 173.57 22.4762 173.57C22.4762 173.57 23.7535 164.008 24.7346 154.189C25.7168 144.372 28.6634 137.694 28.6634 137.694C28.6634 137.694 26.1099 75.8381 26.3059 75.249C26.503 74.6599 27.8772 67.5907 27.8772 67.5907Z" fill="#F2575D"/>
<path d="M75.6347 122.925H48.1464V95.4371H75.6347V122.925Z" fill="white"/>
<path d="M100.143 68.9649C100.143 68.9649 103.328 68.547 107.414 75.6072C111.502 82.6662 113.236 92.4511 113.236 92.4511L114.35 102.235C114.35 102.235 103.947 91.8316 92.7997 100.376L95.7722 89.7264C95.7722 89.7264 93.2964 81.6762 95.1527 75.9789C97.0101 70.2817 100.143 68.9649 100.143 68.9649Z" fill="#F2575D"/>
<path d="M27.3365 141.379L27.3377 141.374C27.3377 141.375 27.3365 141.376 27.3365 141.379ZM28.0766 139.191C28.0552 138.684 28.2433 138.265 28.5654 137.925C28.4652 138.166 28.294 138.594 28.0766 139.191Z" fill="#A7A9A8"/>
<path d="M68.8348 148.95C65.3464 148.95 61.8478 148.768 58.365 148.585C53.7863 148.344 49.1422 148.092 44.7932 146.644C42.109 145.75 39.5477 144.404 36.7475 143.998C34.8676 143.724 32.9392 143.885 31.0751 143.515C29.2131 143.145 27.8941 143.195 27.3365 141.379C27.3365 141.377 27.3377 141.376 27.3377 141.374L28.0811 139.266C28.0789 139.241 28.0777 139.216 28.0766 139.191C28.294 138.594 28.4652 138.166 28.5654 137.925C29.3145 137.132 30.7856 136.766 31.9885 136.697C35.8408 136.478 39.6908 136.38 43.543 136.38C61.3207 136.38 79.0927 138.48 96.7724 140.578C91.7487 145.036 85.1335 147.386 78.4833 148.337C75.2867 148.794 72.0641 148.95 68.8348 148.95Z" fill="#CC4341"/>
<path d="M8.43711 101.17C8.38868 102.159 7.47856 117.637 8.43711 123.982C9.39341 130.326 10.1988 134.149 12.4121 135.154C14.6255 136.161 18.9328 136.161 21.0042 136.966C23.0756 137.77 28.5082 141.593 39.1716 139.782C49.8351 137.971 64.1187 127.711 68.5454 126.906C72.9721 126.101 77.1971 125.9 77.1971 125.9L89.0231 123.246L90.4761 113.627C90.4761 113.627 65.5267 114.029 61.7049 114.432C57.8819 114.834 52.2478 116.444 40.9817 115.84C29.7145 115.237 32.7332 115.036 32.7332 115.036L33.5724 104.901C33.5724 104.901 26.8873 98.1986 19.6503 97.3617C12.4121 96.526 8.43711 101.17 8.43711 101.17Z" fill="#9D575A"/>
<path d="M26.2633 115.031C25.717 114.286 25.6403 112.619 26.3511 112.031C25.4308 111.076 24.7291 109.911 24.3157 108.65C24.0691 107.896 23.9598 106.971 24.5038 106.395C24.1333 105.814 23.7627 105.205 23.6557 104.524C23.5509 103.841 23.7728 103.062 24.3642 102.706C25.2022 102.2 26.2745 102.744 27.0394 103.356C27.8526 104.006 28.5937 104.747 29.2437 105.559C28.6929 105.027 28.9643 103.999 29.6255 103.614C30.2867 103.228 31.145 103.367 31.8186 103.729C33.1184 104.424 34.2966 105.764 35.0389 107.037C36.8321 110.108 39.4295 113.073 41.6451 115.855" fill="#9D575A"/>
<path d="M41.645 115.855C41.6124 115.881 41.235 115.467 40.5704 114.704C39.907 113.938 38.9473 112.832 37.8131 111.414C37.2476 110.704 36.6405 109.914 36.0255 109.038C35.3846 108.183 34.8518 107.132 34.1647 106.211C33.4607 105.297 32.5596 104.391 31.4603 103.875C30.9219 103.646 30.2798 103.581 29.7966 103.853C29.3438 104.086 29.0903 104.796 29.3426 105.213L29.4474 105.348L29.0149 105.742C28.4416 105.027 27.8096 104.38 27.1372 103.812C26.4873 103.247 25.7315 102.76 25.0095 102.792C24.2818 102.814 23.8583 103.567 23.9011 104.272C23.9326 104.984 24.3314 105.645 24.7155 106.26L24.8214 106.428L24.6862 106.567C24.3179 106.945 24.3032 107.562 24.408 108.099C24.5183 108.642 24.7268 109.166 24.9396 109.636C25.3778 110.581 25.932 111.337 26.4648 111.92L26.5819 112.047L26.4524 112.154C26.1133 112.433 26.0097 112.903 25.9658 113.27C25.932 113.651 25.9624 113.982 26.0131 114.244C26.1144 114.77 26.2936 115.01 26.2631 115.03C26.2496 115.048 26.012 114.829 25.8498 114.284C25.7698 114.014 25.709 113.666 25.7202 113.253C25.7518 112.852 25.8058 112.326 26.2496 111.908L26.2361 112.14C25.6571 111.562 25.05 110.795 24.5623 109.818C24.3224 109.325 24.096 108.804 23.9552 108.191C23.8313 107.606 23.7851 106.82 24.3224 106.223L24.2942 106.53C23.9 105.912 23.4269 105.208 23.3661 104.296C23.3458 103.849 23.437 103.377 23.7062 102.967C23.9709 102.552 24.4621 102.257 24.9701 102.231C25.9984 102.192 26.8185 102.79 27.5112 103.368C28.214 103.958 28.8752 104.631 29.4722 105.375L29.0408 105.769L28.838 105.511C28.4055 104.688 28.802 103.754 29.5139 103.342C30.2325 102.952 31.048 103.074 31.6867 103.346C32.9527 103.955 33.8572 104.913 34.5961 105.886C35.3271 106.897 35.8047 107.899 36.4265 108.762C37.0167 109.641 37.5991 110.438 38.1409 111.16C39.1873 112.526 40.0636 113.667 40.7473 114.56C41.3578 115.368 41.6754 115.831 41.645 115.855Z" fill="#773C3E"/>
<path d="M36.7712 114.855C36.6428 114.955 34.7065 112.79 32.4459 110.023C30.1852 107.254 28.4528 104.924 28.5756 104.819C28.6995 104.713 30.6358 106.877 32.901 109.652C35.1661 112.426 36.8985 114.757 36.7712 114.855Z" fill="#773C3E"/>
<path d="M31.3825 113.576C31.2709 113.686 29.5993 112.212 27.6721 110.249C25.7381 108.288 24.3752 106.5 24.5036 106.395C24.6264 106.295 26.1673 107.887 28.0922 109.839C30.0116 111.796 31.5019 113.458 31.3825 113.576Z" fill="#773C3E"/>
<path d="M29.2603 115.122C29.1421 115.233 28.3953 114.63 27.5921 113.778C26.789 112.923 26.2326 112.141 26.3509 112.031C26.4691 111.92 27.2148 112.521 28.0191 113.375C28.8222 114.229 29.3775 115.01 29.2603 115.122Z" fill="#773C3E"/>
<path d="M42.6462 115.915C42.6439 115.996 41.2134 115.998 38.901 115.936C37.6878 115.895 36.3226 115.847 34.8381 115.796C33.3174 115.74 31.6132 115.674 29.8752 115.468C28.1304 115.308 26.4634 115.255 24.9687 115.41C23.4729 115.558 22.155 115.908 21.112 116.351C20.0735 116.797 19.2782 117.286 18.8085 117.715C18.314 118.117 18.0223 118.332 17.993 118.304C17.9638 118.278 18.1992 118.009 18.6598 117.542C19.0958 117.048 19.8842 116.486 20.9419 115.971C22.0052 115.462 23.3659 115.056 24.909 114.872C26.4533 114.683 28.162 114.722 29.927 114.883C31.6921 115.093 33.3434 115.17 34.8741 115.256C36.3531 115.353 37.7126 115.442 38.9189 115.521C41.2224 115.69 42.6473 115.835 42.6462 115.915Z" fill="#773C3E"/>
<path d="M92.7996 100.376C92.7996 100.376 89.8733 110.981 89.0229 123.246L54.6097 125.462L40.6549 138.75C40.6549 138.75 49.8833 145.052 66.7272 145.393C83.5712 145.734 90.7249 142.497 98.9024 142.156C107.08 141.816 109.976 140.112 111.509 134.831C113.043 129.551 114.294 112.798 114.35 109.334C114.406 105.87 113.512 101.491 113.512 101.491C113.512 101.491 103.563 92.3282 92.7996 100.376Z" fill="#9D575A"/>
<path d="M89.371 123.263C89.2156 123.27 89.0004 120.661 89.2201 117.447C89.4341 114.232 89.9995 111.676 90.1516 111.703C90.3183 111.73 90.0164 114.304 89.8069 117.487C89.5873 120.668 89.5411 123.26 89.371 123.263Z" fill="#773C3E"/>
<path d="M89.549 122.703C89.5603 122.721 89.415 122.829 89.1277 123.021C88.8428 123.217 88.4057 123.475 87.8279 123.787C86.6733 124.405 84.9264 125.185 82.659 125.808C80.3972 126.441 77.6195 126.897 74.531 127.091C72.9957 127.204 71.3974 127.335 69.8351 127.861C68.2694 128.372 66.6891 129.125 65.066 129.846C58.5994 132.722 52.7479 135.324 48.4034 137.257C46.2408 138.155 44.425 138.727 43.1511 139.032C42.5147 139.189 42.0157 139.288 41.6744 139.338C41.3342 139.391 41.154 139.408 41.1506 139.388C41.1405 139.342 41.8456 139.186 43.0914 138.813C44.3372 138.442 46.1135 137.816 48.2401 136.875C50.3757 135.954 52.8425 134.671 55.6708 133.429C58.4958 132.158 61.5877 130.767 64.834 129.307C66.4616 128.585 68.0295 127.838 69.6594 127.312C71.2949 126.772 72.9608 126.649 74.4938 126.551C77.5677 126.388 80.3037 125.981 82.5519 125.407C84.8024 124.842 86.5495 124.133 87.7265 123.584C88.9013 123.029 89.5243 122.66 89.549 122.703Z" fill="#773C3E"/>
<path d="M98.8382 126.639C98.7357 126.784 96.7927 125.424 94.0804 124.447C91.3748 123.447 89.0139 123.235 89.0286 123.058C89.0218 122.912 91.4773 122.861 94.282 123.896C97.0912 124.91 98.9385 126.532 98.8382 126.639Z" fill="#773C3E"/>
<path d="M32.51 103.243C32.4312 103.257 32.18 102.192 31.8669 100.455C31.5549 98.7195 31.1888 96.3091 30.8768 93.6361C30.5648 90.961 30.3665 88.5314 30.2719 86.7697C30.1762 85.008 30.175 83.9155 30.255 83.9098C30.3372 83.9042 30.4848 84.9855 30.6853 86.7348C30.9072 88.6925 31.1696 91.0083 31.4591 93.5686C31.7666 96.1243 32.0437 98.4379 32.278 100.394C32.4841 102.144 32.5911 103.23 32.51 103.243Z" fill="#17282F"/>
<path d="M92.7995 100.376C92.7127 100.361 92.875 99.1621 93.1014 97.2247C93.3266 95.2874 93.5711 92.6077 93.7749 89.6363C93.9799 86.6638 94.1883 83.9616 94.4755 82.0208C94.7515 80.0778 95.0523 78.8985 95.1243 78.912C95.2111 78.9278 95.0567 80.1262 94.8878 82.0681C94.7064 84.0089 94.5645 86.6987 94.3606 89.678C94.1556 92.6561 93.8436 95.3516 93.5125 97.2833C93.1791 99.2162 92.8727 100.39 92.7995 100.376Z" fill="#17282F"/>
<path d="M30.4239 79.7228C30.2505 79.7622 29.7346 77.5049 28.3908 75.0336C27.0707 72.5488 25.4724 70.8728 25.6008 70.75C25.6909 70.634 27.5348 72.1771 28.9078 74.7554C30.3 77.3224 30.5704 79.7115 30.4239 79.7228Z" fill="#17282F"/>
<path d="M78.0867 64.0696C78.1059 64.0719 78.1059 64.2363 78.0867 64.5517C78.0653 64.8671 78.0113 65.3334 77.8682 65.918C77.6103 67.0895 76.9603 68.7565 75.656 70.4866C74.3708 72.2235 72.3636 73.9503 69.8 75.2152C67.2442 76.497 64.1883 77.3193 60.9556 77.8036C59.337 78.0447 57.6981 78.1562 56.1403 77.8825C54.5882 77.6234 53.152 77.0613 51.9265 76.3044C49.4417 74.8086 47.8693 72.5569 47.1383 70.5294C46.3825 68.485 46.3487 66.6885 46.4501 65.4979C46.5132 64.8998 46.5987 64.4402 46.6787 64.1338C46.7598 63.8286 46.8116 63.672 46.8308 63.6765C46.8837 63.6867 46.7305 64.3332 46.6787 65.5125C46.6472 66.684 46.7463 68.4265 47.5258 70.3796C48.2816 72.3192 49.8168 74.4357 52.2059 75.8414C53.384 76.5533 54.7594 77.0771 56.2327 77.3159C57.7071 77.5671 59.2784 77.4601 60.8689 77.2235C64.0599 76.7448 67.0595 75.9518 69.5623 74.7297C72.0708 73.5234 74.0363 71.889 75.3283 70.2321C76.636 68.5842 77.3276 66.9892 77.6486 65.8595C77.9786 64.7252 78.0304 64.0629 78.0867 64.0696Z" fill="#17282F"/>
<path d="M59.9363 79.8649C55.2641 79.8649 50.4432 78.2552 50.1109 74.9459C50.5952 75.3897 51.1314 75.8054 51.7216 76.1782C52.2747 76.5815 52.8784 76.9025 53.5238 77.1255C54.3427 77.469 55.2213 77.7292 56.1404 77.8824C56.7813 77.9951 57.4346 78.0424 58.0958 78.0424C59.0419 78.0424 60.0028 77.9455 60.9557 77.8036C64.1884 77.3192 67.2443 76.497 69.8 75.2152C71.4986 74.3771 72.9539 73.3352 74.1163 72.2224C73.5565 74.0775 71.9458 75.4145 70.3474 76.5668C68.6376 77.8002 65.7327 79.0708 63.6703 79.4999C62.5011 79.7432 61.2249 79.8649 59.9363 79.8649ZM61.1224 77.1852C61.1505 77.1796 61.1798 77.1739 61.208 77.1683C62.9741 76.8169 64.7797 76.4452 66.5268 75.9383C64.8394 76.4823 63.0158 76.8901 61.1224 77.1852Z" fill="#CC4341"/>
<path d="M58.0958 78.0425C57.4346 78.0425 56.7813 77.9952 56.1404 77.8825C55.2213 77.7294 54.3427 77.4692 53.5239 77.1256C54.0386 77.3036 54.5804 77.4196 55.1447 77.4658C55.8329 77.5221 56.5144 77.5525 57.1936 77.5525C58.5081 77.5525 59.8102 77.4399 61.1224 77.1853C63.0159 76.8902 64.8395 76.4824 66.5268 75.9384C69.3968 75.1049 72.108 73.9053 74.2166 71.8316C74.1885 71.9645 74.1546 72.0941 74.1163 72.2225C72.9539 73.3353 71.4987 74.3772 69.8001 75.2153C67.2443 76.4971 64.1884 77.3194 60.9557 77.8037C60.0028 77.9456 59.042 78.0425 58.0958 78.0425ZM51.7216 76.1783C51.1314 75.8055 50.5953 75.3899 50.1109 74.9461C50.0985 74.8255 50.0929 74.7039 50.0929 74.5789C50.5694 75.1961 51.1156 75.7368 51.7216 76.1783Z" fill="#0F191D"/>
</svg>
